<svg width="60" height="60" viewBox="0 0 60 60" fill="none" xmlns="http://www.w3.org/2000/svg">
    <mask id="u3wlebkbfa" style="mask-type:alpha" maskUnits="userSpaceOnUse" x="0" y="0" width="60" height="60">
        <path fill="#D9D9D9" d="M0 0h60v60H0z"/>
    </mask>
    <g mask="url(#u3wlebkbfa)">
        <path d="M13.938 43.563c2.583-1.792 5.177-3.167 7.78-4.126C24.324 38.48 27.084 38 30 38c2.958 0 5.75.49 8.375 1.469 2.625.979 5.23 2.343 7.813 4.093 1.75-2.291 2.99-4.51 3.718-6.656C50.636 34.76 51 32.458 51 30c0-5.958-2.01-10.948-6.031-14.969C40.948 11.011 35.959 9 30 9c-5.958 0-10.948 2.01-14.969 6.031C11.011 19.052 9 24.041 9 30c0 2.5.365 4.813 1.094 6.938.729 2.124 2.01 4.333 3.844 6.624zM30 32.313c-2.542 0-4.677-.865-6.406-2.594-1.73-1.73-2.594-3.844-2.594-6.344 0-2.542.865-4.677 2.594-6.406 1.729-1.73 3.864-2.594 6.406-2.594s4.677.875 6.406 2.625C38.136 18.75 39 20.875 39 23.375s-.865 4.615-2.594 6.344c-1.729 1.729-3.864 2.593-6.406 2.593zm0 23.874c-3.583 0-6.958-.677-10.125-2.03a26.06 26.06 0 0 1-8.344-5.657 27.243 27.243 0 0 1-5.656-8.344C4.5 37.01 3.812 33.604 3.812 29.938c0-3.5.698-6.844 2.094-10.032 1.396-3.187 3.282-5.979 5.657-8.375a26.476 26.476 0 0 1 8.28-5.656c3.147-1.375 6.553-2.063 10.22-2.063 3.5 0 6.843.698 10.03 2.094 3.188 1.396 5.98 3.282 8.376 5.657 2.396 2.374 4.281 5.156 5.656 8.343C55.5 23.094 56.188 26.458 56.188 30c0 3.583-.688 6.958-2.063 10.125-1.375 3.167-3.26 5.938-5.656 8.313-2.396 2.374-5.188 4.26-8.375 5.656-3.188 1.396-6.552 2.093-10.094 2.093zM30 51c2.25 0 4.385-.302 6.406-.906 2.021-.604 4.115-1.719 6.282-3.344-2.167-1.5-4.282-2.594-6.344-3.281A19.933 19.933 0 0 0 30 42.437c-2.167 0-4.27.344-6.313 1.032-2.041.687-4.125 1.781-6.25 3.281 2.125 1.625 4.188 2.74 6.188 3.344 2 .604 4.125.906 6.375.906zm0-23.063c1.333 0 2.427-.427 3.281-1.28.854-.855 1.282-1.949 1.282-3.282s-.428-2.438-1.282-3.313c-.854-.875-1.948-1.312-3.281-1.312-1.333 0-2.427.438-3.281 1.313-.854.875-1.282 1.979-1.282 3.312 0 1.333.428 2.427 1.282 3.281.854.854 1.948 1.282 3.281 1.282z" fill="#27AC34"/>
    </g>
</svg>
