<svg width="18" height="18" viewBox="0 0 18 18" fill="none" xmlns="http://www.w3.org/2000/svg">
    <mask id="ml993sdcqa" style="mask-type:alpha" maskUnits="userSpaceOnUse" x="0" y="0" width="18" height="18">
        <path fill="#D9D9D9" d="M0 0h18v18H0z"/>
    </mask>
    <g mask="url(#ml993sdcqa)">
        <path d="M9 10.613a.83.83 0 0 1-.61-.254.83.83 0 0 1-.253-.609.83.83 0 0 1 .253-.61.83.83 0 0 1 .61-.253.83.83 0 0 1 .609.254.83.83 0 0 1 .253.609.83.83 0 0 1-.253.61.83.83 0 0 1-.61.253zm-3 0a.83.83 0 0 1-.61-.254.83.83 0 0 1-.253-.609.83.83 0 0 1 .253-.61.83.83 0 0 1 .61-.253.83.83 0 0 1 .609.254.83.83 0 0 1 .253.609.83.83 0 0 1-.253.61.83.83 0 0 1-.61.253zm6 0a.831.831 0 0 1-.61-.254.831.831 0 0 1-.253-.609.83.83 0 0 1 .253-.61.83.83 0 0 1 .61-.253.83.83 0 0 1 .609.254.83.83 0 0 1 .253.609c0 .238-.085.44-.253.61a.831.831 0 0 1-.61.253zm-3 3a.83.83 0 0 1-.61-.254.83.83 0 0 1-.253-.609.83.83 0 0 1 .253-.61.83.83 0 0 1 .61-.253.83.83 0 0 1 .609.254.83.83 0 0 1 .253.609.83.83 0 0 1-.253.61.83.83 0 0 1-.61.253zm-3 0a.83.83 0 0 1-.61-.254.83.83 0 0 1-.253-.609.83.83 0 0 1 .253-.61.83.83 0 0 1 .61-.253.83.83 0 0 1 .609.254.83.83 0 0 1 .253.609.83.83 0 0 1-.253.61.83.83 0 0 1-.61.253zm6 0a.831.831 0 0 1-.61-.254.831.831 0 0 1-.253-.609c0-.238.084-.44.253-.61a.831.831 0 0 1 .61-.253c.237 0 .44.085.609.254a.831.831 0 0 1 .253.609c0 .238-.085.44-.253.61a.831.831 0 0 1-.61.253zm-8.363 3.45a1.914 1.914 0 0 1-1.404-.584 1.914 1.914 0 0 1-.584-1.404V4.35c0-.547.195-1.014.584-1.404.39-.389.857-.584 1.404-.584h.15v-.43c0-.276.097-.51.29-.704a.958.958 0 0 1 .704-.29c.275 0 .509.096.703.29.194.194.29.428.29.703v.431h6.45v-.43c0-.276.097-.51.291-.704a.958.958 0 0 1 .703-.29c.275 0 .51.096.703.29.194.194.29.428.29.703v.431h.15c.547 0 1.015.195 1.405.584.389.39.583.857.583 1.404v10.725c0 .547-.194 1.014-.583 1.404-.39.389-.857.584-1.404.584H3.637zm0-1.988h10.725v-7.95H3.637v7.95z" fill="#8F8F8F"/>
    </g>
</svg>
