<svg width="10" height="11" viewBox="0 0 10 11" fill="none" xmlns="http://www.w3.org/2000/svg">
    <path d="M9.37461 10.4C8.16628 10.4 7.00378 10.1438 5.88711 9.63126C4.77044 9.11876 3.78294 8.43335 2.92461 7.57501C2.06628 6.71668 1.38086 5.7271 0.868359 4.60626C0.355859 3.48543 0.0996094 2.31668 0.0996094 1.10001C0.0996094 0.933346 0.145443 0.804179 0.237109 0.712512C0.328776 0.620846 0.457943 0.575012 0.624609 0.575012H3.12461C3.24128 0.575012 3.34961 0.614596 3.44961 0.693762C3.54961 0.772929 3.60794 0.866679 3.62461 0.975012L3.99961 3.10001C4.01628 3.20835 4.01419 3.30835 3.99336 3.40001C3.97253 3.49168 3.93294 3.56668 3.87461 3.62501L2.54961 4.97501C2.86628 5.50835 3.28294 6.0396 3.79961 6.56876C4.31628 7.09793 4.84961 7.53335 5.39961 7.87501L6.77461 6.55001C6.84128 6.48335 6.91628 6.43751 6.99961 6.41251C7.08294 6.38751 7.16628 6.38335 7.24961 6.40001L9.47461 6.87501C9.59128 6.90001 9.69128 6.95835 9.77461 7.05001C9.85794 7.14168 9.89961 7.24168 9.89961 7.35001V9.87501C9.89961 10.0417 9.85378 10.1708 9.76211 10.2625C9.67044 10.3542 9.54128 10.4 9.37461 10.4Z"
          fill="#27AC34"/>
</svg>
