<svg width="38" height="38" viewBox="0 0 38 38" fill="none" xmlns="http://www.w3.org/2000/svg">
<rect width="38" height="38" rx="12" fill="#EBFBED"/>
<mask id="mask0_91_1050" style="mask-type:alpha" maskUnits="userSpaceOnUse" x="7" y="7" width="24" height="24">
<rect x="7" y="7" width="24" height="24" fill="#D9D9D9"/>
</mask>
<g mask="url(#mask0_91_1050)">
<path d="M26.95 28C24.8 28 22.7043 27.5207 20.663 26.562C18.621 25.604 16.8127 24.3373 15.238 22.762C13.6627 21.1873 12.396 19.379 11.438 17.337C10.4793 15.2957 10 13.2 10 11.05C10 10.75 10.1 10.5 10.3 10.3C10.5 10.1 10.75 10 11.05 10H15.1C15.3333 10 15.5417 10.075 15.725 10.225C15.9083 10.375 16.0167 10.5667 16.05 10.8L16.7 14.3C16.7333 14.5333 16.7293 14.7457 16.688 14.937C16.646 15.129 16.55 15.3 16.4 15.45L14 17.9C14.7 19.1 15.575 20.225 16.625 21.275C17.675 22.325 18.8333 23.2333 20.1 24L22.45 21.65C22.6 21.5 22.796 21.3873 23.038 21.312C23.2793 21.2373 23.5167 21.2167 23.75 21.25L27.2 21.95C27.4333 22 27.625 22.1123 27.775 22.287C27.925 22.4623 28 22.6667 28 22.9V26.95C28 27.25 27.9 27.5 27.7 27.7C27.5 27.9 27.25 28 26.95 28Z" fill="#27AC34"/>
</g>
</svg>
