<svg width="16" height="16" viewBox="0 0 16 16" fill="none" xmlns="http://www.w3.org/2000/svg">
    <mask id="pnj61jhzza" style="mask-type:alpha" maskUnits="userSpaceOnUse" x="0" y="0" width="16" height="16">
        <path fill="#D9D9D9" d="M0 0h16v16H0z"/>
    </mask>
    <g mask="url(#pnj61jhzza)">
        <path d="M7.95 14.9a.632.632 0 0 1-.475-.2.673.673 0 0 1-.191-.483c0-.09.022-.178.066-.267.045-.089.111-.178.2-.267l2.834-2.833-.617-.617-2.833 2.834a1.043 1.043 0 0 1-.267.2.591.591 0 0 1-.267.066.673.673 0 0 1-.483-.191.631.631 0 0 1-.133-.742c.044-.089.11-.178.2-.267L8.817 9.3 8.2 8.683l-2.833 2.834a1.043 1.043 0 0 1-.267.2.591.591 0 0 1-.266.066.659.659 0 0 1-.484-.2.658.658 0 0 1-.2-.483c0-.089.022-.178.067-.267.044-.089.111-.178.2-.266L7.25 7.733l-.616-.616L3.8 9.95a1.045 1.045 0 0 1-.266.2.592.592 0 0 1-.267.067.658.658 0 0 1-.483-.2.658.658 0 0 1-.2-.484c0-.089.022-.177.066-.266.045-.09.111-.178.2-.267L6.7 5.15 8.05 6.5c.19.189.406.325.65.408.245.084.495.125.75.125a1.55 1.55 0 0 0 1.142-.458 1.55 1.55 0 0 0 .458-1.142 1.74 1.74 0 0 0-.166-.741 2.049 2.049 0 0 0-.4-.592L8.467 2.083c.233-.233.508-.41.825-.533a2.822 2.822 0 0 1 1.025-.183c.467 0 .883.07 1.25.208.367.139.639.297.817.475l1.833 1.833c.4.4.686.786.858 1.159.173.372.259.847.259 1.425 0 .444-.1.875-.3 1.291-.2.417-.54.864-1.017 1.342l-5.533 5.533a1.043 1.043 0 0 1-.267.2.591.591 0 0 1-.267.067zM2.034 8.867 1.6 8.45a3.33 3.33 0 0 1-.683-.9A2.315 2.315 0 0 1 .684 6.5c0-.411.066-.794.2-1.15a2.44 2.44 0 0 1 .55-.883L3.75 2.133a2.564 2.564 0 0 1 1.85-.766c.39 0 .753.06 1.092.183.339.122.636.317.892.583l2.383 2.384c.122.122.222.264.3.425.078.16.117.325.117.491a.898.898 0 0 1-.275.659.898.898 0 0 1-.659.275c-.155 0-.316-.028-.483-.084a1.093 1.093 0 0 1-.433-.266L6.717 4.2 2.034 8.867z" fill="#F2AB00"/>
    </g>
</svg>
