<svg width="46" height="46" viewBox="0 0 46 46" fill="none" xmlns="http://www.w3.org/2000/svg">
<rect width="46" height="46" rx="14" fill="#E54F00"/>
<mask id="mask0_184_2108" style="mask-type:alpha" maskUnits="userSpaceOnUse" x="11" y="11" width="24" height="24">
<rect x="11" y="11" width="24" height="24" fill="#D9D9D9"/>
</mask>
<g mask="url(#mask0_184_2108)">
<path d="M23 23C21.9 23 20.9583 22.6083 20.175 21.825C19.3917 21.0417 19 20.1 19 19C19 17.9 19.3917 16.9583 20.175 16.175C20.9583 15.3917 21.9 15 23 15C24.1 15 25.0417 15.3917 25.825 16.175C26.6083 16.9583 27 17.9 27 19C27 20.1 26.6083 21.0417 25.825 21.825C25.0417 22.6083 24.1 23 23 23ZM17 31C16.45 31 15.9792 30.8042 15.5875 30.4125C15.1958 30.0208 15 29.55 15 29V28.2C15 27.6333 15.1458 27.1125 15.4375 26.6375C15.7292 26.1625 16.1167 25.8 16.6 25.55C17.6333 25.0333 18.6833 24.6458 19.75 24.3875C20.8167 24.1292 21.9 24 23 24C24.1 24 25.1833 24.1292 26.25 24.3875C27.3167 24.6458 28.3667 25.0333 29.4 25.55C29.8833 25.8 30.2708 26.1625 30.5625 26.6375C30.8542 27.1125 31 27.6333 31 28.2V29C31 29.55 30.8042 30.0208 30.4125 30.4125C30.0208 30.8042 29.55 31 29 31H17Z" fill="white"/>
</g>
</svg>
