<svg width="20" height="21" viewBox="0 0 20 21" fill="none" xmlns="http://www.w3.org/2000/svg">
<mask id="mask0_175_302" style="mask-type:alpha" maskUnits="userSpaceOnUse" x="0" y="0" width="20" height="21">
<rect y="0.5" width="20" height="20" fill="#D9D9D9"/>
</mask>
<g mask="url(#mask0_175_302)">
<path d="M11.708 18.6667L5.56217 12.2708V10.2292H8.74967C9.36079 10.2292 9.9094 10.0625 10.3955 9.72918C10.8816 9.39584 11.1802 8.90973 11.2913 8.27084H4.52051V6.06251H11.1872C10.9511 5.5764 10.6316 5.2014 10.2288 4.93751C9.82606 4.67362 9.33301 4.54168 8.74967 4.54168H4.52051V2.33334H15.4788V4.54168H12.708C12.9025 4.72223 13.0761 4.9514 13.2288 5.22918C13.3816 5.50695 13.4858 5.78473 13.5413 6.06251H15.4788V8.27084H13.5622C13.3955 9.4514 12.8643 10.441 11.9684 11.2396C11.0726 12.0382 10.0066 12.4375 8.77051 12.4375L14.7913 18.6667H11.708Z" fill="#E54F00"/>
</g>
</svg>
