<svg width="16" height="16" viewBox="0 0 16 16" fill="none" xmlns="http://www.w3.org/2000/svg">
    <mask id="stnaxe3aba" style="mask-type:alpha" maskUnits="userSpaceOnUse" x="0" y="0" width="16" height="16">
        <path fill="#D9D9D9" d="M0 0h16v16H0z"/>
    </mask>
    <g mask="url(#stnaxe3aba)">
        <path d="M2.566 14.7c-.485 0-.901-.173-1.247-.519a1.7 1.7 0 0 1-.52-1.248V5.467c0-.486.174-.902.52-1.248A1.701 1.701 0 0 1 2.566 3.7h2.3V2.333c0-.485.173-.901.52-1.247a1.701 1.701 0 0 1 1.247-.52h2.733c.486 0 .902.174 1.248.52.346.346.52.762.52 1.247V3.7h2.3a1.7 1.7 0 0 1 1.247.519c.346.346.519.762.519 1.248v7.466a1.7 1.7 0 0 1-.52 1.248 1.7 1.7 0 0 1-1.247.519H2.566zm4.067-11h2.733V2.333H6.633V3.7z" fill="#F2AB00"/>
    </g>
</svg>
