<svg width="60" height="60" viewBox="0 0 60 60" fill="none" xmlns="http://www.w3.org/2000/svg">
    <mask id="qirhi2w2za" style="mask-type:alpha" maskUnits="userSpaceOnUse" x="0" y="0" width="60" height="60">
        <path fill="#D9D9D9" d="M0 0h60v60H0z"/>
    </mask>
    <g mask="url(#qirhi2w2za)">
        <path d="M30 51c2.292 0 4.52-.365 6.688-1.094a21.214 21.214 0 0 0 6-3.156 29.961 29.961 0 0 0-6.032-3.094A18.647 18.647 0 0 0 30 42.438c-2.292 0-4.5.406-6.625 1.218a28.683 28.683 0 0 0-5.938 3.094 20.9 20.9 0 0 0 5.875 3.125A20.304 20.304 0 0 0 30 51zm6.188-21.25-3.376-3.375a2.937 2.937 0 0 0 1.313-1.25 3.634 3.634 0 0 0 .438-1.75c0-1.333-.438-2.438-1.313-3.313S31.292 18.75 30 18.75a3.44 3.44 0 0 0-1.781.5c-.563.333-.969.77-1.219 1.313l-3.375-3.313a6.995 6.995 0 0 1 2.813-2.156A8.997 8.997 0 0 1 30 14.375c2.542 0 4.677.865 6.406 2.594C38.136 18.698 39 20.833 39 23.375c0 1.25-.24 2.427-.719 3.531a7.832 7.832 0 0 1-2.093 2.844zM51.438 45l-3.688-3.688a21.4 21.4 0 0 0 2.406-5.406C50.72 33.97 51 32 51 30c0-5.833-2.042-10.792-6.125-14.875S35.833 9 30 9c-2.042 0-4 .27-5.875.813a18.754 18.754 0 0 0-5.313 2.5L15 8.563a25.397 25.397 0 0 1 7.094-3.532A26.003 26.003 0 0 1 30 3.813c3.583 0 6.98.677 10.188 2.03 3.208 1.355 6 3.22 8.374 5.595 2.376 2.374 4.24 5.166 5.594 8.374 1.354 3.209 2.032 6.605 2.032 10.188 0 2.708-.407 5.344-1.22 7.906A25.4 25.4 0 0 1 51.439 45zm-21.5 11.188c-3.542 0-6.917-.688-10.125-2.063-3.209-1.375-6-3.24-8.375-5.594-2.376-2.354-4.24-5.135-5.594-8.343C4.49 36.978 3.812 33.582 3.812 30c0-2.792.428-5.5 1.282-8.125a24.579 24.579 0 0 1 3.781-7.25L2.812 8.5a2.082 2.082 0 0 1-.624-1.531c0-.604.229-1.136.687-1.594a2.024 2.024 0 0 1 1.563-.688c.625 0 1.145.23 1.562.688l48.125 48.188c.417.416.625.927.625 1.53 0 .605-.23 1.136-.688 1.594a2.046 2.046 0 0 1-1.5.626c-.583 0-1.104-.209-1.562-.626L12.562 18.25c-1.25 1.792-2.156 3.667-2.718 5.625C9.28 25.833 9 27.875 9 30c0 2.458.427 4.844 1.281 7.156a22.574 22.574 0 0 0 3.656 6.407 34.026 34.026 0 0 1 7.657-4.032A23.81 23.81 0 0 1 30 38c1.958 0 3.885.25 5.781.75s3.719 1.167 5.469 2l7.5 7.438a26.158 26.158 0 0 1-8.563 5.906 25.705 25.705 0 0 1-10.25 2.093z" fill="#F2AB00"/>
    </g>
</svg>
