<svg
    xmlns="http://www.w3.org/2000/svg"
    viewBox="0 0 24 24"
    id="vector">
    <path
        id="path"
        d="M 20 20 L 16 20 L 16 16 L 20 16 L 20 20 Z M 14 10 L 10 10 L 10 14 L 14 14 L 14 10 Z M 20 10 L 16 10 L 16 14 L 20 14 L 20 10 Z M 8 16 L 4 16 L 4 20 L 8 20 L 8 16 Z M 14 16 L 10 16 L 10 20 L 14 20 L 14 16 Z M 8 10 L 4 10 L 4 14 L 8 14 L 8 10 Z M 24 2 L 24 24 L 0 24 L 0 2 L 3 2 L 3 3 C 3 4.103 3.897 5 5 5 C 6.103 5 7 4.103 7 3 L 7 2 L 17 2 L 17 3 C 17 4.103 17.897 5 19 5 C 20.103 5 21 4.103 21 3 L 21 2 L 24 2 Z M 22 8 L 2 8 L 2 22 L 22 22 L 22 8 Z M 20 1 C 20 0.735 19.895 0.48 19.707 0.293 C 19.52 0.105 19.265 0 19 0 C 18.735 0 18.48 0.105 18.293 0.293 C 18.105 0.48 18 0.735 18 1 L 18 3 C 18 3.265 18.105 3.52 18.293 3.707 C 18.48 3.895 18.735 4 19 4 C 19.265 4 19.52 3.895 19.707 3.707 C 19.895 3.52 20 3.265 20 3 L 20 1 Z M 6 3 C 6 3.265 5.895 3.52 5.707 3.707 C 5.52 3.895 5.265 4 5 4 C 4.735 4 4.48 3.895 4.293 3.707 C 4.105 3.52 4 3.265 4 3 L 4 1 C 4 0.735 4.105 0.48 4.293 0.293 C 4.48 0.105 4.735 0 5 0 C 5.265 0 5.52 0.105 5.707 0.293 C 5.895 0.48 6 0.735 6 1 L 6 3 Z"
        fill="#000000"
        fill-opacity="0.3"
        stroke-opacity="0.3"/>
</svg>
