<svg width="16" height="16" viewBox="0 0 16 16" fill="none" xmlns="http://www.w3.org/2000/svg">
    <mask id="p5rvoipava" style="mask-type:alpha" maskUnits="userSpaceOnUse" x="0" y="0" width="16" height="16">
        <path fill="#D9D9D9" d="M0 0h16v16H0z"/>
    </mask>
    <g mask="url(#p5rvoipava)">
        <path d="M13.066 9c-.288-.611-.591-1.047-.908-1.308-.316-.261-.803-.52-1.458-.775l-3.983-1.5a1.755 1.755 0 0 0-.467-.1 7.3 7.3 0 0 0-.517-.017H4.45v-.667c0-.289.064-.56.192-.816.127-.256.308-.467.541-.634L8.3.967A1.738 1.738 0 0 1 9.333.633c.378 0 .722.111 1.034.334l3.116 2.216c.233.167.414.378.542.634.128.255.191.527.191.816V9h-1.15zM10 4.717a.486.486 0 0 0 .5-.5.486.486 0 0 0-.5-.5.486.486 0 0 0-.5.5.486.486 0 0 0 .5.5zm-1.333 0a.486.486 0 0 0 .5-.5.486.486 0 0 0-.5-.5.486.486 0 0 0-.5.5.486.486 0 0 0 .5.5zM10 6.05a.486.486 0 0 0 .5-.5.486.486 0 0 0-.5-.5.486.486 0 0 0-.5.5.486.486 0 0 0 .5.5zm-1.333 0c.133 0 .25-.047.35-.142.1-.094.15-.214.15-.358a.472.472 0 0 0-.15-.358.494.494 0 0 0-.35-.142.494.494 0 0 0-.35.142.472.472 0 0 0-.15.358c0 .144.05.264.15.358.1.095.216.142.35.142zM.033 13.733V8.2c0-.433.153-.803.459-1.108A1.51 1.51 0 0 1 1.6 6.633c.433 0 .803.153 1.108.459.306.305.459.675.459 1.108v5.533c0 .434-.153.803-.459 1.109A1.51 1.51 0 0 1 1.6 15.3a1.51 1.51 0 0 1-1.108-.458 1.51 1.51 0 0 1-.459-1.109zm8.9 1.6-4.433-1.2v-7.5h1.283c.09 0 .186.009.292.025.105.017.214.048.325.092l3.966 1.483c.49.19.84.425 1.05.709.212.283.317.547.317.791a.586.586 0 0 1-.167.434.586.586 0 0 1-.433.166H9.617c-.256 0-.506-.016-.75-.05a3.875 3.875 0 0 1-.75-.183l-.75-.25a.387.387 0 0 0-.342.025.505.505 0 0 0-.225.275.432.432 0 0 0 0 .333.47.47 0 0 0 .25.234l1.017.416c.188.078.383.125.583.142.2.017.461.025.783.025h3.684c.755 0 1.308.2 1.658.6.35.4.525.978.525 1.733l-5.367 1.684a1.565 1.565 0 0 1-.475.091 1.661 1.661 0 0 1-.525-.075z" fill="#F2AB00"/>
    </g>
</svg>
