<svg width="141" height="34" viewBox="0 0 141 34" fill="none" xmlns="http://www.w3.org/2000/svg">
    <path d="M17.124 31.975c0-.448-.012-.851.008-1.252.006-.13.083-.267.152-.389.905-1.604 1.352-3.36 1.59-5.185 0-.02-.014-.044-.046-.137-.63.612-1.24 1.202-1.899 1.84-.034-.181-.063-.312-.083-.442-.186-1.276-.616-2.45-1.34-3.507-.138-.201-.29-.329-.54-.296-.248.032-.38.201-.472.415-.129.312-.103.617.02.931.318.82.542 1.665.504 2.56-.028.721-.212 1.4-.57 2.036-.699.323-1.406.195-2.145.014.046.867.298 1.59.87 2.163v1.249c-.114.009-.214.024-.312.024-3.792 0-7.585.003-11.378 0-.613 0-1.085-.285-1.343-.872-.255-.576-.155-1.116.246-1.585.29-.338.67-.483 1.106-.483h1.856c.078 0 .155-.018.255-.033V16.074c-.135-.009-.255-.02-.375-.023-.7 0-1.398.009-2.097-.003-.86-.015-1.378-.855-1-1.608.212-.418.567-.608 1.011-.614.665-.006 1.33 0 1.994 0 8.537 0 17.073 0 25.61.006.243 0 .506.059.721.172.421.22.605.741.487 1.219-.12.48-.524.816-1.037.828-.699.012-1.398.003-2.097.003h-.404v12.99c.144.006.267.018.387.018.573 0 1.146-.006 1.719 0 .84.012 1.47.638 1.478 1.456.009.822-.65 1.48-1.492 1.48H17.473c-.1 0-.2-.014-.346-.023h-.003zm-6.987-8.357c1.34 1.418 2.647 2.798 3.976 4.207.226-.442.264-.849.275-1.264.029-1.195-.278-2.32-.687-3.42-.255-.692-.035-1.395.558-1.795.353-.237.66-.246.977.035.24.214.458.466.642.733.532.78.908 1.644 1.206 2.543.034.103.077.204.134.35l4.724-4.652c-1.35-1.51-2.667-2.984-4.013-4.485-2.607 2.59-5.182 5.147-7.795 7.745l.003.003zm-1.673 1.14.095.035c1.372-2.717 2.747-5.435 4.145-8.205-1.003-.128-1.925-.247-2.89-.368-.456 2.871-.903 5.704-1.35 8.54v-.003zm1.788-2.184c.025.02.051.042.08.062 2.01-1.972 4.019-3.948 6.076-5.968-.848-.457-1.645-.884-2.478-1.332l-3.678 7.238zM8.35 25.478c-.098.573-.184 1.086-.281 1.644l4.291.652c.011-.032.02-.065.032-.095-1.327-.72-2.653-1.444-4.042-2.198v-.003zm4.268 1.7.071-.08-3.13-3.097c-.184.317-.396.688-.634 1.098 1.252.703 2.473 1.39 3.69 2.076l.003.003zM15.006 12.586H1.194c-.158 0-.327-.01-.467-.072-.854-.385-.96-1.162-.198-1.723.716-.528 1.48-.988 2.229-1.468C6.373 6.99 9.99 4.663 13.6 2.327c.647-.418 1.266-.442 1.93-.035 4.584 2.8 9.176 5.592 13.765 8.383.332.202.647.413.667.872.023.537-.32.97-.836 1.03-.146.018-.298.012-.447.012H15.004l.002-.003z" fill="#F2AB00"/>
    <path d="M60.41 9.144V24.5h-3.08v-9.988L53.216 24.5h-2.332l-4.136-9.988V24.5h-3.08V9.144h3.498l4.884 11.418 4.884-11.418h3.476zm11.758 7.48a3.451 3.451 0 0 1 2.133 1.298c.558.704.837 1.51.837 2.42 0 .821-.206 1.547-.617 2.178-.395.616-.975 1.1-1.737 1.452-.763.352-1.665.528-2.707.528h-6.621V9.144h6.335c1.042 0 1.937.169 2.684.506.763.337 1.335.807 1.717 1.408.396.601.594 1.283.594 2.046 0 .895-.243 1.643-.727 2.244-.469.601-1.1 1.027-1.891 1.276zm-5.633-1.144h2.817c.733 0 1.297-.161 1.694-.484.395-.337.593-.814.593-1.43s-.197-1.093-.593-1.43c-.397-.337-.961-.506-1.695-.506h-2.816v3.85zm3.103 6.512c.747 0 1.327-.176 1.737-.528.426-.352.638-.85.638-1.496 0-.66-.22-1.173-.66-1.54-.44-.381-1.033-.572-1.781-.572h-3.037v4.136h3.103zm7.162-3.63c0-1.232.242-2.325.726-3.278.499-.953 1.166-1.687 2.002-2.2.85-.513 1.797-.77 2.838-.77.91 0 1.702.183 2.376.55.69.367 1.24.829 1.65 1.386v-1.738h3.102V24.5h-3.102v-1.782c-.396.572-.946 1.049-1.65 1.43-.69.367-1.488.55-2.398.55a5.235 5.235 0 0 1-2.816-.792c-.836-.528-1.503-1.269-2.002-2.222-.484-.968-.726-2.075-.726-3.322zm9.592.044c0-.748-.146-1.386-.44-1.914a3.01 3.01 0 0 0-1.188-1.232 3.114 3.114 0 0 0-1.606-.44c-.572 0-1.1.14-1.584.418-.484.279-.88.69-1.188 1.232-.293.528-.44 1.159-.44 1.892 0 .733.147 1.379.44 1.936.308.543.704.96 1.188 1.254.499.293 1.027.44 1.584.44a3.24 3.24 0 0 0 1.606-.418 3.2 3.2 0 0 0 1.188-1.232c.294-.543.44-1.188.44-1.936zm12.864-6.27c1.452 0 2.626.462 3.52 1.386.895.91 1.342 2.185 1.342 3.828v7.15h-3.08v-6.732c0-.968-.242-1.709-.726-2.222-.484-.528-1.144-.792-1.98-.792-.85 0-1.525.264-2.024.792-.484.513-.726 1.254-.726 2.222V24.5h-3.08V12.312h3.08v1.518c.411-.528.932-.939 1.562-1.232a4.84 4.84 0 0 1 2.112-.462zM114.263 24.5l-4.136-5.192V24.5h-3.08V8.22h3.08v9.262l4.092-5.17h4.004l-5.368 6.116 5.412 6.072h-4.004zm16.962-6.358c0 .44-.029.836-.088 1.188h-8.91c.073.88.381 1.57.924 2.068.543.499 1.21.748 2.002.748 1.144 0 1.958-.491 2.442-1.474h3.322c-.352 1.173-1.027 2.141-2.024 2.904-.997.748-2.222 1.122-3.674 1.122-1.173 0-2.229-.257-3.168-.77a5.668 5.668 0 0 1-2.178-2.222c-.513-.953-.77-2.053-.77-3.3 0-1.261.257-2.369.77-3.322a5.37 5.37 0 0 1 2.156-2.2c.924-.513 1.987-.77 3.19-.77 1.159 0 2.193.25 3.102.748a5.162 5.162 0 0 1 2.134 2.134c.513.91.77 1.958.77 3.146zm-3.19-.88c-.015-.792-.301-1.423-.858-1.892-.557-.484-1.239-.726-2.046-.726-.763 0-1.408.235-1.936.704-.513.455-.829 1.093-.946 1.914h5.786zm8.518-3.058a4.357 4.357 0 0 1 1.54-1.518c.645-.367 1.379-.55 2.2-.55v3.234h-.814c-.968 0-1.701.227-2.2.682-.484.455-.726 1.247-.726 2.376V24.5h-3.08V12.312h3.08v1.892z" fill="#202020"/>
</svg>
