<svg width="38" height="38" viewBox="0 0 38 38" fill="none" xmlns="http://www.w3.org/2000/svg">
<rect width="38" height="38" rx="12" fill="#F9F8F8"/>
<mask id="mask0_190_4224" style="mask-type:alpha" maskUnits="userSpaceOnUse" x="7" y="7" width="24" height="24">
<rect x="7" y="7" width="24" height="24" fill="#D9D9D9"/>
</mask>
<g mask="url(#mask0_190_4224)">
<path d="M19 20C18.7167 20 18.4792 19.9042 18.2875 19.7125C18.0958 19.5208 18 19.2833 18 19V11C18 10.7167 18.0958 10.4792 18.2875 10.2875C18.4792 10.0958 18.7167 10 19 10C19.2833 10 19.5208 10.0958 19.7125 10.2875C19.9042 10.4792 20 10.7167 20 11V19C20 19.2833 19.9042 19.5208 19.7125 19.7125C19.5208 19.9042 19.2833 20 19 20ZM19 28C17.75 28 16.5792 27.7625 15.4875 27.2875C14.3958 26.8125 13.4458 26.1708 12.6375 25.3625C11.8292 24.5542 11.1875 23.6042 10.7125 22.5125C10.2375 21.4208 10 20.25 10 19C10 17.85 10.2083 16.75 10.625 15.7C11.0417 14.65 11.6417 13.7 12.425 12.85C12.6083 12.65 12.8417 12.55 13.125 12.55C13.4083 12.55 13.65 12.65 13.85 12.85C14.0333 13.0333 14.1167 13.2625 14.1 13.5375C14.0833 13.8125 13.9833 14.0583 13.8 14.275C13.2167 14.925 12.7708 15.6542 12.4625 16.4625C12.1542 17.2708 12 18.1167 12 19C12 20.95 12.6792 22.6042 14.0375 23.9625C15.3958 25.3208 17.05 26 19 26C20.95 26 22.6042 25.3208 23.9625 23.9625C25.3208 22.6042 26 20.95 26 19C26 18.1167 25.8417 17.2625 25.525 16.4375C25.2083 15.6125 24.7583 14.875 24.175 14.225C23.9917 14.025 23.8958 13.7917 23.8875 13.525C23.8792 13.2583 23.9667 13.0333 24.15 12.85C24.35 12.65 24.5917 12.55 24.875 12.55C25.1583 12.55 25.3917 12.65 25.575 12.85C26.3583 13.7 26.9583 14.65 27.375 15.7C27.7917 16.75 28 17.85 28 19C28 20.25 27.7625 21.4208 27.2875 22.5125C26.8125 23.6042 26.1708 24.5542 25.3625 25.3625C24.5542 26.1708 23.6042 26.8125 22.5125 27.2875C21.4208 27.7625 20.25 28 19 28Z" fill="#5B5959"/>
</g>
</svg>
