<svg width="335" height="335" viewBox="0 0 335 335" fill="none" xmlns="http://www.w3.org/2000/svg">
<path d="M167.5 0C74.9762 0 0 74.9762 0 167.5C0 260.024 74.9762 335 167.5 335V0Z" fill="#2695A3"/>
<path d="M335 167.5C335 74.9762 260.024 0 167.5 0V335C260.024 335 335 260.024 335 167.5Z" fill="#2695A3"/>
<path d="M167.5 62.1143C125.924 62.3137 92.2246 96.1128 92.2246 137.689V244.071C92.2246 285.747 125.924 319.546 167.5 319.646V62.1143Z" fill="#484859"/>
<path d="M167.5 62.1143V319.745C208.976 319.346 242.376 285.647 242.376 244.171V137.689C242.476 96.2125 208.976 62.5131 167.5 62.1143Z" fill="#484859"/>
<path d="M192.226 215.556V206.483H143.272V239.784L192.226 215.556Z" fill="#FCC57F"/>
<path d="M143.472 193.323V238.986C143.472 238.986 137.789 246.165 136.194 250.951C134.2 256.833 137.191 267.9 137.191 267.9L127.32 295.717C130.511 304.591 158.427 312.866 168.497 312.567V193.323H143.472Z" fill="#FFD8AA"/>
<path d="M209.774 258.329L196.115 243.174C196.115 243.174 194.819 238.987 192.825 236.494V165.905H167.7V315.558C179.863 315.259 204.49 319.945 205.188 308.778L215.756 269.496L209.774 258.329Z" fill="#FCC57F"/>
<path d="M168.497 234.599V113.361C148.756 113.361 134.299 117.848 124.229 125.027C81.9553 155.336 118.845 234.4 168.497 234.599Z" fill="#FFE6C8"/>
<path d="M167.699 113.361C167.6 113.361 167.6 113.361 167.5 113.361V234.699C167.6 234.699 167.6 234.699 167.699 234.699C229.315 234.599 271.39 113.361 167.699 113.361Z" fill="#F4DBAD"/>
<path d="M235.398 151.847C239.187 152.644 240.682 160.421 238.688 169.195C236.694 177.969 232.108 184.35 228.319 183.452C224.53 182.655 223.035 174.878 225.029 166.104C226.923 157.43 231.609 151.049 235.398 151.847Z" fill="#F4DBAD"/>
<path d="M100.201 150.052C96.4126 150.949 94.9171 158.626 96.9111 167.4C98.8055 176.174 103.492 182.555 107.28 181.657C111.069 180.86 112.564 173.083 110.57 164.309C108.676 155.635 103.99 149.254 100.201 150.052Z" fill="#FFE6C8"/>
<path d="M143.372 238.986C143.372 238.986 142.076 258.628 167.699 258.628C193.223 258.628 192.725 236.494 192.725 236.494L201.897 253.642L201 280.762C201 280.762 185.147 288.837 183.851 288.837C182.455 288.837 153.94 284.45 153.94 284.45L144.868 277.073L135.097 264.61L137.091 250.851L143.372 238.986Z" fill="white"/>
<path d="M140.381 249.854C140.381 244.669 140.979 243.174 143.372 238.986L127.32 257.132C120.74 260.323 113.561 264.41 105.485 269.595C95.9137 275.776 84.448 294.72 78.4658 308.778C102.893 326.027 138.586 335.698 168.497 334.9V278.369C152.943 278.269 140.381 265.507 140.381 249.854Z" fill="#B485BB"/>
<path d="M230.013 269.595C222.536 264.909 215.955 261.22 209.874 258.229L202.695 248.159L192.725 236.394C194.32 239.983 197.211 245.567 197.211 249.754C197.211 265.607 184.449 278.369 168.796 278.369C168.696 278.369 168.597 278.369 168.497 278.369V334.9C168.597 334.9 168.696 334.9 168.796 334.9C201 334.9 232.207 325.229 256.435 308.977C250.452 294.421 239.984 275.876 230.013 269.595Z" fill="#B485BB"/>
<path d="M167.5 113.262C167.5 113.262 136.892 168.696 105.585 147.36C74.2785 126.123 149.653 104.488 149.653 104.488L167.5 108.576V113.262Z" fill="#484859"/>
<path d="M167.5 113.361C167.5 113.361 200.103 168.696 231.509 147.36C262.915 126.024 187.341 104.388 187.341 104.388L167.5 108.675V113.361Z" fill="#484859"/>
</svg>
