<svg width="15" height="18" viewBox="0 0 15 18" fill="none" xmlns="http://www.w3.org/2000/svg">
<path d="M5.96289 16.925C5.38789 16.5625 4.78164 16.2563 4.14414 16.0063C3.50664 15.7563 2.83164 15.5688 2.11914 15.4438C1.55664 15.3438 1.08789 15.0938 0.712891 14.6938C0.337891 14.2938 0.150391 13.8313 0.150391 13.3063V8.46876C0.150391 7.90626 0.347391 7.44376 0.741391 7.08126C1.13489 6.71876 1.59414 6.57501 2.11914 6.65001C3.18164 6.81251 4.16614 7.09676 5.07264 7.50276C5.97864 7.90926 6.78789 8.43751 7.50039 9.08751C8.21289 8.43751 9.02239 7.90926 9.92889 7.50276C10.8349 7.09676 11.8191 6.81251 12.8816 6.65001C13.4066 6.57501 13.8661 6.71876 14.2601 7.08126C14.6536 7.44376 14.8504 7.90626 14.8504 8.46876V13.3063C14.8504 13.8313 14.6629 14.2938 14.2879 14.6938C13.9129 15.0938 13.4441 15.3438 12.8816 15.4438C12.1691 15.5688 11.4941 15.7563 10.8566 16.0063C10.2191 16.2563 9.61289 16.5625 9.03789 16.925C8.57539 17.2125 8.06289 17.3563 7.50039 17.3563C6.93789 17.3563 6.42539 17.2125 5.96289 16.925ZM7.50039 7.36251C6.55039 7.36251 5.74414 7.03126 5.08164 6.36876C4.41914 5.70626 4.08789 4.90001 4.08789 3.95001C4.08789 3.00001 4.41914 2.19376 5.08164 1.53126C5.74414 0.868756 6.55039 0.537506 7.50039 0.537506C8.45039 0.537506 9.25664 0.868756 9.91914 1.53126C10.5816 2.19376 10.9129 3.00001 10.9129 3.95001C10.9129 4.90001 10.5816 5.70626 9.91914 6.36876C9.25664 7.03126 8.45039 7.36251 7.50039 7.36251Z" fill="#E54F00"/>
</svg>
