<svg width="20" height="20" viewBox="0 0 20 20" fill="none" xmlns="http://www.w3.org/2000/svg">
    <mask id="c6630gt1ba" style="mask-type:alpha" maskUnits="userSpaceOnUse" x="0" y="0" width="20" height="20">
        <path fill="#D9D9D9" d="M0 0h20v20H0z"/>
    </mask>
    <g mask="url(#c6630gt1ba)">
        <path d="M13.375 11.25c.36 0 .66-.118.896-.354s.354-.535.354-.896-.118-.66-.354-.896a1.214 1.214 0 0 0-.896-.354c-.361 0-.66.118-.896.354a1.214 1.214 0 0 0-.354.896c0 .361.118.66.354.896s.535.354.896.354zm-2.834 3.5c-.527 0-.978-.18-1.353-.542a1.777 1.777 0 0 1-.563-1.332V7.124c0-.527.187-.971.563-1.332a1.883 1.883 0 0 1 1.353-.542h6.542c.527 0 .978.18 1.354.542.375.36.563.805.563 1.332v5.752c0 .527-.188.971-.563 1.332a1.883 1.883 0 0 1-1.354.542h-6.542zm-6.5 3.417a2.127 2.127 0 0 1-1.56-.649 2.127 2.127 0 0 1-.648-1.56V4.042c0-.608.216-1.128.649-1.56a2.126 2.126 0 0 1 1.56-.649h11.916c.607 0 1.127.217 1.56.649.432.432.648.952.648 1.56h-7.625c-.875 0-1.614.295-2.218.885-.605.59-.907 1.323-.907 2.198v5.75c0 .875.302 1.608.907 2.198.604.59 1.343.885 2.218.885h7.625c0 .611-.216 1.132-.648 1.563a2.13 2.13 0 0 1-1.56.646H4.041z" fill="#F2AB00"/>
    </g>
</svg>
