<svg width="16" height="16" viewBox="0 0 16 16" fill="none" xmlns="http://www.w3.org/2000/svg">
    <mask id="qkaw5lhfwa" style="mask-type:alpha" maskUnits="userSpaceOnUse" x="0" y="0" width="16" height="16">
        <path fill="#D9D9D9" d="M0 0h16v16H0z"/>
    </mask>
    <g mask="url(#qkaw5lhfwa)">
        <path d="M10.416 7.55a.851.851 0 0 0 .625-.258.851.851 0 0 0 .259-.625.851.851 0 0 0-.259-.625.851.851 0 0 0-.625-.259.851.851 0 0 0-.625.259.851.851 0 0 0-.258.625c0 .244.086.452.258.625.173.172.38.258.625.258zm-4.616-1h2.1c.233 0 .43-.08.591-.242a.805.805 0 0 0 .242-.591c0-.234-.08-.43-.242-.592a.805.805 0 0 0-.591-.242H5.8c-.234 0-.43.08-.592.242a.805.805 0 0 0-.242.592c0 .233.08.43.242.591a.805.805 0 0 0 .592.242zm-1.667 7.667c-.367 0-.717-.125-1.05-.375-.333-.25-.55-.553-.65-.909a97.72 97.72 0 0 1-.642-2.325 34.474 34.474 0 0 1-.416-1.766c-.106-.517-.18-.975-.225-1.375-.045-.4-.067-.778-.067-1.134 0-1.077.378-1.994 1.133-2.75.756-.755 1.673-1.133 2.75-1.133H8.2c.333-.422.744-.75 1.233-.983.489-.234 1-.35 1.533-.35.39 0 .69.094.9.283.212.189.317.456.317.8a2.355 2.355 0 0 1-.083.533c-.034.1-.07.214-.109.342a4.7 4.7 0 0 0-.091.342l1.366 1.366h.767c.245 0 .45.084.617.25.166.167.25.373.25.617v3.517a.9.9 0 0 1-.159.516.782.782 0 0 1-.441.317l-1.367.433-.75 2.517a1.816 1.816 0 0 1-.65.917c-.311.233-.661.35-1.05.35h-.917c-.422 0-.8-.117-1.133-.35a1.539 1.539 0 0 1-.633-.984h-.967c-.089.423-.3.75-.633.984-.334.233-.711.35-1.134.35h-.933z" fill="#F2AB00"/>
    </g>
</svg>
