<svg width="16" height="16" viewBox="0 0 16 16" fill="none" xmlns="http://www.w3.org/2000/svg">
    <mask id="b16o7pgdea" style="mask-type:alpha" maskUnits="userSpaceOnUse" x="0" y="0" width="16" height="16">
        <path fill="#D9D9D9" d="M0 0h16v16H0z"/>
    </mask>
    <g mask="url(#b16o7pgdea)">
        <path d="M3.516 11.467a.851.851 0 0 1-.625-.259.851.851 0 0 1-.258-.625v-2.65c0-.244.086-.45.258-.616a.866.866 0 0 1 .625-.25c.245 0 .453.086.625.258.173.172.259.38.259.625v2.65c0 .245-.086.45-.259.617a.866.866 0 0 1-.625.25zm4.467 0a.851.851 0 0 1-.625-.259.851.851 0 0 1-.258-.625v-2.65c0-.244.086-.45.258-.616a.866.866 0 0 1 .625-.25c.245 0 .453.086.625.258.172.172.258.38.258.625v2.65c0 .245-.086.45-.258.617a.866.866 0 0 1-.625.25zm-6.55 3.1a.824.824 0 0 1-.617-.259.866.866 0 0 1-.25-.625c0-.244.087-.452.259-.625a.851.851 0 0 1 .625-.258h13.116c.245 0 .45.086.617.258.167.173.25.38.25.625a.851.851 0 0 1-.258.625.851.851 0 0 1-.625.259H1.433zm11.05-3.1a.851.851 0 0 1-.625-.259.851.851 0 0 1-.258-.625v-2.65c0-.244.086-.45.258-.616a.866.866 0 0 1 .625-.25c.244 0 .453.086.625.258.172.172.258.38.258.625v2.65c0 .245-.086.45-.258.617a.866.866 0 0 1-.625.25zM8.8.517l5.833 2.966c.222.123.411.278.567.467.155.189.233.411.233.667 0 .289-.083.547-.25.775a.786.786 0 0 1-.667.341H1.466a.765.765 0 0 1-.658-.341A1.336 1.336 0 0 1 .566 4.6c0-.244.081-.461.242-.65.161-.189.353-.344.575-.467L7.2.517a1.707 1.707 0 0 1 1.6 0z" fill="#F2AB00"/>
    </g>
</svg>
