<svg width="66" height="92" viewBox="0 0 66 92" fill="none" xmlns="http://www.w3.org/2000/svg">
<rect width="66" height="66" rx="28" fill="#E54F00"/>
<mask id="mask0_114_2461" style="mask-type:alpha" maskUnits="userSpaceOnUse" x="22" y="22" width="22" height="22">
<rect x="22" y="22" width="22" height="22" fill="#D9D9D9"/>
</mask>
<g mask="url(#mask0_114_2461)">
<path d="M26.5835 32.0833C25.896 32.0833 25.3192 31.8503 24.8533 31.3844C24.3873 30.9184 24.1543 30.3417 24.1543 29.6542V26.5833C24.1543 25.8958 24.3873 25.3191 24.8533 24.8531C25.3192 24.3872 25.896 24.1542 26.5835 24.1542H29.6543C30.3418 24.1542 30.9185 24.3872 31.3845 24.8531C31.8505 25.3191 32.0835 25.8958 32.0835 26.5833V29.6542C32.0835 30.3417 31.8505 30.9184 31.3845 31.3844C30.9185 31.8503 30.3418 32.0833 29.6543 32.0833H26.5835ZM26.5835 29.6542H29.6543V26.5833H26.5835V29.6542ZM26.5835 41.8458C25.896 41.8458 25.3192 41.6129 24.8533 41.1469C24.3873 40.6809 24.1543 40.1042 24.1543 39.4167V36.3458C24.1543 35.6583 24.3873 35.0816 24.8533 34.6156C25.3192 34.1497 25.896 33.9167 26.5835 33.9167H29.6543C30.3418 33.9167 30.9185 34.1497 31.3845 34.6156C31.8505 35.0816 32.0835 35.6583 32.0835 36.3458V39.4167C32.0835 40.1042 31.8505 40.6809 31.3845 41.1469C30.9185 41.6129 30.3418 41.8458 29.6543 41.8458H26.5835ZM26.5835 39.4167H29.6543V36.3458H26.5835V39.4167ZM36.346 32.0833C35.6585 32.0833 35.0817 31.8503 34.6158 31.3844C34.1498 30.9184 33.9168 30.3417 33.9168 29.6542V26.5833C33.9168 25.8958 34.1498 25.3191 34.6158 24.8531C35.0817 24.3872 35.6585 24.1542 36.346 24.1542H39.4168C40.1043 24.1542 40.681 24.3872 41.147 24.8531C41.613 25.3191 41.846 25.8958 41.846 26.5833V29.6542C41.846 30.3417 41.613 30.9184 41.147 31.3844C40.681 31.8503 40.1043 32.0833 39.4168 32.0833H36.346ZM36.346 29.6542H39.4168V26.5833H36.346V29.6542ZM40.471 41.8458C40.3029 41.8458 40.1616 41.7885 40.047 41.674C39.9324 41.5594 39.8751 41.4181 39.8751 41.25V40.4708C39.8751 40.3028 39.9324 40.1615 40.047 40.0469C40.1616 39.9323 40.3029 39.875 40.471 39.875H41.2501C41.4182 39.875 41.5595 39.9323 41.6741 40.0469C41.7887 40.1615 41.846 40.3028 41.846 40.4708V41.25C41.846 41.4181 41.7887 41.5594 41.6741 41.674C41.5595 41.7885 41.4182 41.8458 41.2501 41.8458H40.471ZM34.5126 35.9104C34.3446 35.9104 34.2033 35.8531 34.0887 35.7385C33.9741 35.624 33.9168 35.4826 33.9168 35.3146V34.5125C33.9168 34.3444 33.9741 34.2031 34.0887 34.0885C34.2033 33.974 34.3446 33.9167 34.5126 33.9167H35.3147C35.4828 33.9167 35.6241 33.974 35.7387 34.0885C35.8533 34.2031 35.9105 34.3444 35.9105 34.5125V35.3146C35.9105 35.4826 35.8533 35.624 35.7387 35.7385C35.6241 35.8531 35.4828 35.9104 35.3147 35.9104H34.5126ZM36.5064 37.9042C36.3383 37.9042 36.197 37.8469 36.0824 37.7323C35.9678 37.6177 35.9105 37.4764 35.9105 37.3083V36.5063C35.9105 36.3382 35.9678 36.1969 36.0824 36.0823C36.197 35.9677 36.3383 35.9104 36.5064 35.9104H37.3085C37.4765 35.9104 37.6178 35.9677 37.7324 36.0823C37.847 36.1969 37.9043 36.3382 37.9043 36.5063V37.3083C37.9043 37.4764 37.847 37.6177 37.7324 37.7323C37.6178 37.8469 37.4765 37.9042 37.3085 37.9042H36.5064ZM34.5126 39.875C34.3446 39.875 34.2033 39.8177 34.0887 39.7031C33.9741 39.5885 33.9168 39.4472 33.9168 39.2792V38.5C33.9168 38.3319 33.9741 38.1906 34.0887 38.076C34.2033 37.9615 34.3446 37.9042 34.5126 37.9042H35.3147C35.4828 37.9042 35.6241 37.9615 35.7387 38.076C35.8533 38.1906 35.9105 38.3319 35.9105 38.5V39.2792C35.9105 39.4472 35.8533 39.5885 35.7387 39.7031C35.6241 39.8177 35.4828 39.875 35.3147 39.875H34.5126ZM36.5064 41.8458C36.3383 41.8458 36.197 41.7885 36.0824 41.674C35.9678 41.5594 35.9105 41.4181 35.9105 41.25V40.4708C35.9105 40.3028 35.9678 40.1615 36.0824 40.0469C36.197 39.9323 36.3383 39.875 36.5064 39.875H37.3085C37.4765 39.875 37.6178 39.9323 37.7324 40.0469C37.847 40.1615 37.9043 40.3028 37.9043 40.4708V41.25C37.9043 41.4181 37.847 41.5594 37.7324 41.674C37.6178 41.7885 37.4765 41.8458 37.3085 41.8458H36.5064ZM38.5001 39.875C38.3321 39.875 38.1908 39.8177 38.0762 39.7031C37.9616 39.5885 37.9043 39.4472 37.9043 39.2792V38.5C37.9043 38.3319 37.9616 38.1906 38.0762 38.076C38.1908 37.9615 38.3321 37.9042 38.5001 37.9042H39.2793C39.4474 37.9042 39.5887 37.9615 39.7033 38.076C39.8178 38.1906 39.8751 38.3319 39.8751 38.5V39.2792C39.8751 39.4472 39.8178 39.5885 39.7033 39.7031C39.5887 39.8177 39.4474 39.875 39.2793 39.875H38.5001ZM38.5001 35.9104C38.3321 35.9104 38.1908 35.8531 38.0762 35.7385C37.9616 35.624 37.9043 35.4826 37.9043 35.3146V34.5125C37.9043 34.3444 37.9616 34.2031 38.0762 34.0885C38.1908 33.974 38.3321 33.9167 38.5001 33.9167H39.2793C39.4474 33.9167 39.5887 33.974 39.7033 34.0885C39.8178 34.2031 39.8751 34.3444 39.8751 34.5125V35.3146C39.8751 35.4826 39.8178 35.624 39.7033 35.7385C39.5887 35.8531 39.4474 35.9104 39.2793 35.9104H38.5001ZM40.471 37.9042C40.3029 37.9042 40.1616 37.8469 40.047 37.7323C39.9324 37.6177 39.8751 37.4764 39.8751 37.3083V36.5063C39.8751 36.3382 39.9324 36.1969 40.047 36.0823C40.1616 35.9677 40.3029 35.9104 40.471 35.9104H41.2501C41.4182 35.9104 41.5595 35.9677 41.6741 36.0823C41.7887 36.1969 41.846 36.3382 41.846 36.5063V37.3083C41.846 37.4764 41.7887 37.6177 41.6741 37.7323C41.5595 37.8469 41.4182 37.9042 41.2501 37.9042H40.471Z" fill="white"/>
</g>
<path d="M21.5174 87.084C20.9654 87.084 20.4694 86.988 20.0294 86.796C19.5974 86.596 19.2574 86.324 19.0094 85.98C18.7614 85.628 18.6334 85.224 18.6254 84.768H19.7894C19.8294 85.16 19.9894 85.492 20.2694 85.764C20.5574 86.028 20.9734 86.16 21.5174 86.16C22.0374 86.16 22.4454 86.032 22.7414 85.776C23.0454 85.512 23.1974 85.176 23.1974 84.768C23.1974 84.448 23.1094 84.188 22.9334 83.988C22.7574 83.788 22.5374 83.636 22.2734 83.532C22.0094 83.428 21.6534 83.316 21.2054 83.196C20.6534 83.052 20.2094 82.908 19.8734 82.764C19.5454 82.62 19.2614 82.396 19.0214 82.092C18.7894 81.78 18.6734 81.364 18.6734 80.844C18.6734 80.388 18.7894 79.984 19.0214 79.632C19.2534 79.28 19.5774 79.008 19.9934 78.816C20.4174 78.624 20.9014 78.528 21.4454 78.528C22.2294 78.528 22.8694 78.724 23.3654 79.116C23.8694 79.508 24.1534 80.028 24.2174 80.676H23.0174C22.9774 80.356 22.8094 80.076 22.5134 79.836C22.2174 79.588 21.8254 79.464 21.3374 79.464C20.8814 79.464 20.5094 79.584 20.2214 79.824C19.9334 80.056 19.7894 80.384 19.7894 80.808C19.7894 81.112 19.8734 81.36 20.0414 81.552C20.2174 81.744 20.4294 81.892 20.6774 81.996C20.9334 82.092 21.2894 82.204 21.7454 82.332C22.2974 82.484 22.7414 82.636 23.0774 82.788C23.4134 82.932 23.7014 83.16 23.9414 83.472C24.1814 83.776 24.3014 84.192 24.3014 84.72C24.3014 85.128 24.1934 85.512 23.9774 85.872C23.7614 86.232 23.4414 86.524 23.0174 86.748C22.5934 86.972 22.0934 87.084 21.5174 87.084ZM25.5004 83.7C25.5004 83.02 25.6364 82.428 25.9084 81.924C26.1804 81.412 26.5564 81.016 27.0364 80.736C27.5244 80.456 28.0804 80.316 28.7044 80.316C29.5124 80.316 30.1764 80.512 30.6964 80.904C31.2244 81.296 31.5724 81.84 31.7404 82.536H30.5644C30.4524 82.136 30.2324 81.82 29.9044 81.588C29.5844 81.356 29.1844 81.24 28.7044 81.24C28.0804 81.24 27.5764 81.456 27.1924 81.888C26.8084 82.312 26.6164 82.916 26.6164 83.7C26.6164 84.492 26.8084 85.104 27.1924 85.536C27.5764 85.968 28.0804 86.184 28.7044 86.184C29.1844 86.184 29.5844 86.072 29.9044 85.848C30.2244 85.624 30.4444 85.304 30.5644 84.888H31.7404C31.5644 85.56 31.2124 86.1 30.6844 86.508C30.1564 86.908 29.4964 87.108 28.7044 87.108C28.0804 87.108 27.5244 86.968 27.0364 86.688C26.5564 86.408 26.1804 86.012 25.9084 85.5C25.6364 84.988 25.5004 84.388 25.5004 83.7ZM32.7894 83.688C32.7894 83.016 32.9254 82.428 33.1974 81.924C33.4694 81.412 33.8414 81.016 34.3134 80.736C34.7934 80.456 35.3254 80.316 35.9094 80.316C36.4854 80.316 36.9854 80.44 37.4094 80.688C37.8334 80.936 38.1494 81.248 38.3574 81.624V80.424H39.4614V87H38.3574V85.776C38.1414 86.16 37.8174 86.48 37.3854 86.736C36.9614 86.984 36.4654 87.108 35.8974 87.108C35.3134 87.108 34.7854 86.964 34.3134 86.676C33.8414 86.388 33.4694 85.984 33.1974 85.464C32.9254 84.944 32.7894 84.352 32.7894 83.688ZM38.3574 83.7C38.3574 83.204 38.2574 82.772 38.0574 82.404C37.8574 82.036 37.5854 81.756 37.2414 81.564C36.9054 81.364 36.5334 81.264 36.1254 81.264C35.7174 81.264 35.3454 81.36 35.0094 81.552C34.6734 81.744 34.4054 82.024 34.2054 82.392C34.0054 82.76 33.9054 83.192 33.9054 83.688C33.9054 84.192 34.0054 84.632 34.2054 85.008C34.4054 85.376 34.6734 85.66 35.0094 85.86C35.3454 86.052 35.7174 86.148 36.1254 86.148C36.5334 86.148 36.9054 86.052 37.2414 85.86C37.5854 85.66 37.8574 85.376 38.0574 85.008C38.2574 84.632 38.3574 84.196 38.3574 83.7ZM44.5108 80.304C45.3108 80.304 45.9588 80.548 46.4548 81.036C46.9508 81.516 47.1988 82.212 47.1988 83.124V87H46.1188V83.28C46.1188 82.624 45.9548 82.124 45.6268 81.78C45.2988 81.428 44.8508 81.252 44.2828 81.252C43.7068 81.252 43.2468 81.432 42.9028 81.792C42.5668 82.152 42.3988 82.676 42.3988 83.364V87H41.3068V80.424H42.3988V81.36C42.6148 81.024 42.9068 80.764 43.2748 80.58C43.6508 80.396 44.0628 80.304 44.5108 80.304Z" fill="#5B5959"/>
</svg>
