<svg width="66" height="92" viewBox="0 0 66 92" fill="none" xmlns="http://www.w3.org/2000/svg">
<rect width="66" height="66" rx="28" fill="#E54F00"/>
<mask id="mask0_114_2467" style="mask-type:alpha" maskUnits="userSpaceOnUse" x="22" y="22" width="22" height="22">
<rect x="22" y="22" width="22" height="22" fill="#D9D9D9"/>
</mask>
<g mask="url(#mask0_114_2467)">
<path d="M39.3246 40.9979L34.3517 36.025C33.8934 36.3764 33.3319 36.6552 32.6673 36.8615C32.0027 37.0677 31.3267 37.1708 30.6392 37.1708C28.8202 37.1708 27.2807 36.541 26.0208 35.2812C24.7608 34.0215 24.1309 32.4822 24.1309 30.6635C24.1309 28.8448 24.7607 27.3052 26.0205 26.0448C27.2802 24.7844 28.8195 24.1542 30.6382 24.1542C32.4569 24.1542 33.9965 24.7841 35.2569 26.0441C36.5173 27.304 37.1475 28.8435 37.1475 30.6625C37.1475 31.35 37.052 32.0069 36.8611 32.6333C36.6701 33.2597 36.3913 33.8174 36.0246 34.3063L41.0434 39.325C41.2725 39.5478 41.3871 39.8212 41.3871 40.1452C41.3871 40.4692 41.2636 40.7548 41.0165 41.0019C40.7899 41.2284 40.5086 41.3417 40.1725 41.3417C39.8364 41.3417 39.5538 41.2271 39.3246 40.9979ZM30.6392 34.7417C31.785 34.7417 32.7513 34.3483 33.5382 33.5615C34.325 32.7747 34.7184 31.8083 34.7184 30.6625C34.7184 29.5167 34.325 28.5503 33.5382 27.7635C32.7513 26.9767 31.785 26.5833 30.6392 26.5833C29.4934 26.5833 28.527 26.9767 27.7402 27.7635C26.9534 28.5503 26.56 29.5167 26.56 30.6625C26.56 31.8083 26.9534 32.7747 27.7402 33.5615C28.527 34.3483 29.4934 34.7417 30.6392 34.7417Z" fill="white"/>
</g>
<path d="M15.5584 87.084C15.0064 87.084 14.5104 86.988 14.0704 86.796C13.6384 86.596 13.2984 86.324 13.0504 85.98C12.8024 85.628 12.6744 85.224 12.6664 84.768H13.8304C13.8704 85.16 14.0304 85.492 14.3104 85.764C14.5984 86.028 15.0144 86.16 15.5584 86.16C16.0784 86.16 16.4864 86.032 16.7824 85.776C17.0864 85.512 17.2384 85.176 17.2384 84.768C17.2384 84.448 17.1504 84.188 16.9744 83.988C16.7984 83.788 16.5784 83.636 16.3144 83.532C16.0504 83.428 15.6944 83.316 15.2464 83.196C14.6944 83.052 14.2504 82.908 13.9144 82.764C13.5864 82.62 13.3024 82.396 13.0624 82.092C12.8304 81.78 12.7144 81.364 12.7144 80.844C12.7144 80.388 12.8304 79.984 13.0624 79.632C13.2944 79.28 13.6184 79.008 14.0344 78.816C14.4584 78.624 14.9424 78.528 15.4864 78.528C16.2704 78.528 16.9104 78.724 17.4064 79.116C17.9104 79.508 18.1944 80.028 18.2584 80.676H17.0584C17.0184 80.356 16.8504 80.076 16.5544 79.836C16.2584 79.588 15.8664 79.464 15.3784 79.464C14.9224 79.464 14.5504 79.584 14.2624 79.824C13.9744 80.056 13.8304 80.384 13.8304 80.808C13.8304 81.112 13.9144 81.36 14.0824 81.552C14.2584 81.744 14.4704 81.892 14.7184 81.996C14.9744 82.092 15.3304 82.204 15.7864 82.332C16.3384 82.484 16.7824 82.636 17.1184 82.788C17.4544 82.932 17.7424 83.16 17.9824 83.472C18.2224 83.776 18.3424 84.192 18.3424 84.72C18.3424 85.128 18.2344 85.512 18.0184 85.872C17.8024 86.232 17.4824 86.524 17.0584 86.748C16.6344 86.972 16.1344 87.084 15.5584 87.084ZM25.9494 83.46C25.9494 83.668 25.9374 83.888 25.9134 84.12H20.6574C20.6974 84.768 20.9174 85.276 21.3174 85.644C21.7254 86.004 22.2174 86.184 22.7934 86.184C23.2654 86.184 23.6574 86.076 23.9694 85.86C24.2894 85.636 24.5134 85.34 24.6414 84.972H25.8174C25.6414 85.604 25.2894 86.12 24.7614 86.52C24.2334 86.912 23.5774 87.108 22.7934 87.108C22.1694 87.108 21.6094 86.968 21.1134 86.688C20.6254 86.408 20.2414 86.012 19.9614 85.5C19.6814 84.98 19.5414 84.38 19.5414 83.7C19.5414 83.02 19.6774 82.424 19.9494 81.912C20.2214 81.4 20.6014 81.008 21.0894 80.736C21.5854 80.456 22.1534 80.316 22.7934 80.316C23.4174 80.316 23.9694 80.452 24.4494 80.724C24.9294 80.996 25.2974 81.372 25.5534 81.852C25.8174 82.324 25.9494 82.86 25.9494 83.46ZM24.8214 83.232C24.8214 82.816 24.7294 82.46 24.5454 82.164C24.3614 81.86 24.1094 81.632 23.7894 81.48C23.4774 81.32 23.1294 81.24 22.7454 81.24C22.1934 81.24 21.7214 81.416 21.3294 81.768C20.9454 82.12 20.7254 82.608 20.6694 83.232H24.8214ZM26.9828 83.688C26.9828 83.016 27.1188 82.428 27.3908 81.924C27.6628 81.412 28.0348 81.016 28.5068 80.736C28.9868 80.456 29.5188 80.316 30.1028 80.316C30.6788 80.316 31.1788 80.44 31.6028 80.688C32.0268 80.936 32.3428 81.248 32.5508 81.624V80.424H33.6548V87H32.5508V85.776C32.3348 86.16 32.0108 86.48 31.5788 86.736C31.1548 86.984 30.6588 87.108 30.0908 87.108C29.5068 87.108 28.9788 86.964 28.5068 86.676C28.0348 86.388 27.6628 85.984 27.3908 85.464C27.1188 84.944 26.9828 84.352 26.9828 83.688ZM32.5508 83.7C32.5508 83.204 32.4508 82.772 32.2508 82.404C32.0508 82.036 31.7788 81.756 31.4348 81.564C31.0988 81.364 30.7268 81.264 30.3188 81.264C29.9108 81.264 29.5388 81.36 29.2028 81.552C28.8668 81.744 28.5988 82.024 28.3988 82.392C28.1988 82.76 28.0988 83.192 28.0988 83.688C28.0988 84.192 28.1988 84.632 28.3988 85.008C28.5988 85.376 28.8668 85.66 29.2028 85.86C29.5388 86.052 29.9108 86.148 30.3188 86.148C30.7268 86.148 31.0988 86.052 31.4348 85.86C31.7788 85.66 32.0508 85.376 32.2508 85.008C32.4508 84.632 32.5508 84.196 32.5508 83.7ZM36.5922 81.492C36.7842 81.116 37.0562 80.824 37.4082 80.616C37.7682 80.408 38.2042 80.304 38.7162 80.304V81.432H38.4282C37.2042 81.432 36.5922 82.096 36.5922 83.424V87H35.5002V80.424H36.5922V81.492ZM39.5687 83.7C39.5687 83.02 39.7047 82.428 39.9767 81.924C40.2487 81.412 40.6247 81.016 41.1047 80.736C41.5927 80.456 42.1487 80.316 42.7727 80.316C43.5807 80.316 44.2447 80.512 44.7647 80.904C45.2927 81.296 45.6407 81.84 45.8087 82.536H44.6327C44.5207 82.136 44.3007 81.82 43.9727 81.588C43.6527 81.356 43.2527 81.24 42.7727 81.24C42.1487 81.24 41.6447 81.456 41.2607 81.888C40.8767 82.312 40.6847 82.916 40.6847 83.7C40.6847 84.492 40.8767 85.104 41.2607 85.536C41.6447 85.968 42.1487 86.184 42.7727 86.184C43.2527 86.184 43.6527 86.072 43.9727 85.848C44.2927 85.624 44.5127 85.304 44.6327 84.888H45.8087C45.6327 85.56 45.2807 86.1 44.7527 86.508C44.2247 86.908 43.5647 87.108 42.7727 87.108C42.1487 87.108 41.5927 86.968 41.1047 86.688C40.6247 86.408 40.2487 86.012 39.9767 85.5C39.7047 84.988 39.5687 84.388 39.5687 83.7ZM50.5298 80.304C51.0258 80.304 51.4738 80.412 51.8738 80.628C52.2738 80.836 52.5858 81.152 52.8098 81.576C53.0418 82 53.1578 82.516 53.1578 83.124V87H52.0778V83.28C52.0778 82.624 51.9138 82.124 51.5858 81.78C51.2578 81.428 50.8098 81.252 50.2418 81.252C49.6658 81.252 49.2058 81.432 48.8618 81.792C48.5258 82.152 48.3578 82.676 48.3578 83.364V87H47.2658V78.12H48.3578V81.36C48.5738 81.024 48.8698 80.764 49.2458 80.58C49.6298 80.396 50.0578 80.304 50.5298 80.304Z" fill="#5B5959"/>
</svg>
