<svg width="18" height="18" viewBox="0 0 18 18" fill="none" xmlns="http://www.w3.org/2000/svg">
    <mask id="vyzylz8g7a" style="mask-type:alpha" maskUnits="userSpaceOnUse" x="0" y="0" width="18" height="18">
        <path fill="#D9D9D9" d="M0 0h18v18H0z"/>
    </mask>
    <g mask="url(#vyzylz8g7a)">
        <path d="m14.175 15.544-4.068-4.069c-.375.287-.835.516-1.378.684a5.57 5.57 0 0 1-1.66.253c-1.488 0-2.748-.515-3.779-1.546-1.03-1.03-1.546-2.29-1.546-3.778S2.26 4.341 3.29 3.31c1.03-1.03 2.29-1.547 3.778-1.547s2.748.516 3.78 1.547c1.03 1.03 1.546 2.29 1.546 3.779A5.5 5.5 0 0 1 12.16 8.7a4.396 4.396 0 0 1-.685 1.369l4.107 4.106a.9.9 0 0 1 .28.671.962.962 0 0 1-.302.701.938.938 0 0 1-.69.278.943.943 0 0 1-.695-.281zM7.07 10.425c.938 0 1.728-.322 2.372-.966.644-.643.966-1.434.966-2.371 0-.938-.322-1.729-.966-2.372-.644-.644-1.434-.966-2.372-.966-.937 0-1.728.322-2.372.966-.643.643-.965 1.434-.965 2.372 0 .937.322 1.728.965 2.371.644.644 1.435.966 2.372.966z" fill="#8F8F8F"/>
    </g>
</svg>
