<svg width="54" height="54" viewBox="0 0 54 54" fill="none" xmlns="http://www.w3.org/2000/svg">
<path d="M52.3164 20.4376C52.5664 21.4792 52.7747 22.5521 52.9414 23.6563C53.1081 24.7605 53.1914 25.8751 53.1914 27.0001C53.1914 30.6667 52.5247 34.1042 51.1914 37.3126C49.8581 40.5209 48.0143 43.3021 45.6602 45.6563C43.306 48.0105 40.5352 49.8542 37.3477 51.1876C34.1602 52.5209 30.7122 53.1876 27.0039 53.1876C23.3372 53.1876 19.8997 52.5209 16.6914 51.1876C13.4831 49.8542 10.7018 48.0105 8.34766 45.6563C5.99349 43.3021 4.14974 40.5209 2.81641 37.3126C1.48307 34.1042 0.816406 30.6667 0.816406 27.0001C0.816406 23.2917 1.48307 19.8438 2.81641 16.6563C4.14974 13.4688 5.99349 10.698 8.34766 8.34381C10.7018 5.98964 13.4831 4.14589 16.6914 2.81256C19.8997 1.47923 23.3372 0.812561 27.0039 0.812561C29.5039 0.812561 31.8789 1.16673 34.1289 1.87506C36.3789 2.58339 38.5039 3.47923 40.5039 4.56256C41.1289 4.89589 41.5247 5.43756 41.6914 6.18756C41.8581 6.93756 41.7331 7.62506 41.3164 8.25006C40.8997 8.79173 40.3581 9.1459 39.6914 9.31256C39.0247 9.47923 38.3997 9.41673 37.8164 9.12506C36.2747 8.16673 34.5872 7.40631 32.7539 6.84381C30.9206 6.28131 29.0039 6.00006 27.0039 6.00006C21.0456 6.00006 16.056 8.01048 12.0352 12.0313C8.01432 16.0521 6.00391 21.0417 6.00391 27.0001C6.00391 32.9584 8.01432 37.948 12.0352 41.9688C16.056 45.9896 21.0456 48.0001 27.0039 48.0001C33.0039 48.0001 37.9935 45.9792 41.9727 41.9376C45.9518 37.8959 47.9414 32.8959 47.9414 26.9376C47.9414 26.1042 47.8893 25.3021 47.7852 24.5313C47.681 23.7605 47.5456 23.0001 47.3789 22.2501C47.2539 21.3751 47.3685 20.6251 47.7227 20.0001C48.0768 19.3751 48.5664 18.9376 49.1914 18.6876C49.7747 18.5209 50.3997 18.5938 51.0664 18.9063C51.7331 19.2188 52.1497 19.7292 52.3164 20.4376ZM21.4414 37.2501L14.1914 29.8751C13.6914 29.4167 13.4414 28.8334 13.4414 28.1251C13.4414 27.4167 13.7122 26.7709 14.2539 26.1876C14.7122 25.7292 15.306 25.5001 16.0352 25.5001C16.7643 25.5001 17.3997 25.7292 17.9414 26.1876L23.2539 31.6251L47.6914 7.18756C48.1914 6.68756 48.7956 6.42715 49.5039 6.40631C50.2122 6.38548 50.8581 6.64589 51.4414 7.18756C51.9414 7.72923 52.1914 8.35423 52.1914 9.06256C52.1914 9.77089 51.9414 10.3959 51.4414 10.9376L25.0664 37.2501C24.5664 37.7917 23.9518 38.0626 23.2227 38.0626C22.4935 38.0626 21.8997 37.7917 21.4414 37.2501Z" fill="#27AC34"/>
</svg>
