<svg width="335" height="304" viewBox="0 0 335 304" fill="none" xmlns="http://www.w3.org/2000/svg">
    <rect y="112.457" width="271.451" height="210.066" rx="105.033" transform="rotate(-24.474 0 112.457)" fill="#fff"/>
    <path d="M275.155 239.623h-74.95c-5.378 0-9.722-4.335-9.722-9.704V66.255c0-5.368 4.344-9.704 9.722-9.704h74.95c5.378 0 9.722 4.335 9.722 9.704v163.664c0 5.369-4.344 9.704-9.722 9.704z" fill="#5076C7"/>
    <path d="M275.155 239.623h-74.95c-5.378 0-9.722-4.335-9.722-9.704V66.255c0-5.368 4.344-9.704 9.722-9.704h74.95c5.378 0 9.722 4.335 9.722 9.704v163.664c0 5.369-4.344 9.704-9.722 9.704z" fill="#5076C7"/>
    <path d="M275.155 239.623h-74.95c-5.378 0-9.722-4.335-9.722-9.704V66.255c0-5.368 4.344-9.704 9.722-9.704h74.95c5.378 0 9.722 4.335 9.722 9.704v163.664c0 5.369-4.344 9.704-9.722 9.704z" fill="#F46012"/>
    <path d="M275.155 240.174h-74.949c-5.654 0-10.274-4.611-10.274-10.255 0-.275.207-.55.552-.55.276 0 .551.206.551.55 0 5.093 4.137 9.223 9.24 9.223h74.949c5.102 0 9.239-4.13 9.239-9.223V198.26c0-.275.207-.551.552-.551.276 0 .551.207.551.551v31.659c-.138 5.644-4.757 10.255-10.411 10.255zM284.877 175.961a.544.544 0 0 1-.552-.551V66.255c0-5.093-4.137-9.223-9.239-9.223h-74.88c-5.102 0-9.24 4.13-9.24 9.223 0 .275-.206.55-.551.55a.544.544 0 0 1-.552-.55c0-5.644 4.62-10.255 10.274-10.255h74.949c5.654 0 10.274 4.611 10.274 10.255V175.41c.069.276-.207.551-.483.551z" fill="#202020"/>
    <path d="M266.812 239.623h-74.949c-5.379 0-9.722-4.335-9.722-9.704V66.255c0-5.368 4.343-9.704 9.722-9.704h74.949c5.378 0 9.722 4.335 9.722 9.704v163.664c0 5.369-4.344 9.704-9.722 9.704z" fill="#202020"/>
    <path d="M273.845 72.587v152.996c0 5.024-4.069 9.085-9.102 9.085H194.62c-5.033 0-9.101-4.061-9.101-9.085V72.587c0-1.24.207-2.41.69-3.442 1.379-3.303 4.619-5.643 8.411-5.643h70.054c3.792 0 7.102 2.34 8.412 5.643.483 1.102.759 2.272.759 3.442z" fill="#F8FAFE"/>
    <path d="M282.877 83.667v15.761h-3.654v-15.76c0-1.033.827-1.79 1.792-1.79.483 0 .966.206 1.31.55.345.276.552.758.552 1.24z" fill="#202020"/>
    <path d="M282.877 83.667v15.761h-3.654v-15.76c0-1.033.827-1.79 1.792-1.79.483 0 .966.206 1.31.55.345.276.552.758.552 1.24z" fill="#202020"/>
    <path d="M282.877 83.667v15.761h-3.654v-15.76c0-1.033.827-1.79 1.792-1.79.483 0 .966.206 1.31.55.345.276.552.758.552 1.24zM279.223 102.319h3.654v20.441a1.778 1.778 0 0 1-1.793 1.789c-.965 0-1.792-.826-1.792-1.789v-20.441h-.069z" fill="#202020"/>
    <path d="M279.223 102.319h3.654v20.441a1.778 1.778 0 0 1-1.793 1.789c-.965 0-1.792-.826-1.792-1.789v-20.441h-.069z" fill="#202020"/>
    <path d="M279.223 102.319h3.654v20.441a1.778 1.778 0 0 1-1.793 1.789c-.965 0-1.792-.826-1.792-1.789v-20.441h-.069zM281.085 168.184a1.779 1.779 0 0 1-1.793-1.79v-27.667a1.78 1.78 0 0 1 1.793-1.79c1.034 0 1.792.826 1.792 1.79v27.667c0 .964-.758 1.79-1.792 1.79z" fill="#202020"/>
    <path d="M281.085 168.184a1.779 1.779 0 0 1-1.793-1.79v-27.667a1.78 1.78 0 0 1 1.793-1.79c1.034 0 1.792.826 1.792 1.79v27.667c0 .964-.758 1.79-1.792 1.79z" fill="#202020"/>
    <path d="M281.085 168.184a1.779 1.779 0 0 1-1.793-1.79v-27.667a1.78 1.78 0 0 1 1.793-1.79c1.034 0 1.792.826 1.792 1.79v27.667c0 .964-.758 1.79-1.792 1.79z" fill="#202020"/>
    <path d="M227.717 61.506c.99 0 1.793-.801 1.793-1.79 0-.988-.803-1.789-1.793-1.789-.99 0-1.793.801-1.793 1.79 0 .988.803 1.789 1.793 1.789z" fill="#D1E2DC"/>
    <path d="M227.717 61.506c.99 0 1.793-.801 1.793-1.79 0-.988-.803-1.789-1.793-1.789-.99 0-1.793.801-1.793 1.79 0 .988.803 1.789 1.793 1.789z" fill="#D1E2DC"/>
    <path d="M227.717 61.506c.99 0 1.793-.801 1.793-1.79 0-.988-.803-1.789-1.793-1.789-.99 0-1.793.801-1.793 1.79 0 .988.803 1.789 1.793 1.789zM273.845 222.693v2.89c0 5.024-4.069 9.085-9.102 9.085H194.62c-5.033 0-9.101-4.061-9.101-9.085v-2.89h88.326z" fill="#D1E2DC"/>
    <path d="M273.845 222.693v2.89c0 5.024-4.069 9.085-9.102 9.085H194.62c-5.033 0-9.101-4.061-9.101-9.085v-2.89h88.326z" fill="#D1E2DC"/>
    <path d="M273.845 222.693v2.89c0 5.024-4.069 9.085-9.102 9.085H194.62c-5.033 0-9.101-4.061-9.101-9.085v-2.89h88.326z" fill="#FFFAEE"/>
    <path d="M273.155 69.145h-86.947c1.38-3.303 4.62-5.643 8.412-5.643h70.054a9.157 9.157 0 0 1 8.481 5.643z" fill="#D1E2DC"/>
    <path d="M273.155 69.145h-86.947c1.38-3.303 4.62-5.643 8.412-5.643h70.054a9.157 9.157 0 0 1 8.481 5.643z" fill="#D1E2DC"/>
    <path d="M273.155 69.145h-86.947c1.38-3.303 4.62-5.643 8.412-5.643h70.054a9.157 9.157 0 0 1 8.481 5.643z" fill="#FFFAEE"/>
    <path d="M273.845 223.243h-56.057a.543.543 0 0 1-.552-.55c0-.276.207-.551.552-.551h56.057c.275 0 .551.207.551.551-.069.275-.276.55-.551.55zM252.539 69.696h-66.33a.544.544 0 0 1-.552-.55c0-.276.207-.551.552-.551h66.33c.276 0 .552.206.552.55-.069.276-.276.551-.552.551z" fill="#202020"/>
    <rect x="197" y="96" width="29" height="29" rx="10" fill="#F2AB00"/>
    <mask id="3htfet0zca" style="mask-type:alpha" maskUnits="userSpaceOnUse" x="202" y="101" width="19" height="19">
        <path fill="#D9D9D9" d="M202.5 101.5h18v18h-18z"/>
    </mask>
    <g mask="url(#3htfet0zca)">
        <path d="M211.5 110.5a2.892 2.892 0 0 1-2.119-.881 2.892 2.892 0 0 1-.881-2.119c0-.825.294-1.531.881-2.119a2.892 2.892 0 0 1 2.119-.881c.825 0 1.531.294 2.119.881.587.588.881 1.294.881 2.119 0 .825-.294 1.531-.881 2.119a2.892 2.892 0 0 1-2.119.881zm-4.5 6c-.413 0-.766-.147-1.059-.441A1.441 1.441 0 0 1 205.5 115v-.6c0-.425.109-.816.328-1.172.219-.356.509-.628.872-.815a11.083 11.083 0 0 1 2.362-.872 10.317 10.317 0 0 1 4.876 0c.8.193 1.587.484 2.362.872.363.187.653.459.872.815.219.356.328.747.328 1.172v.6c0 .413-.147.766-.441 1.059a1.441 1.441 0 0 1-1.059.441h-9z" fill="#fff"/>
    </g>
    <rect x="236" y="96" width="29" height="29" rx="10" fill="#E54F00"/>
    <mask id="av8gtn8i4b" style="mask-type:alpha" maskUnits="userSpaceOnUse" x="241" y="101" width="19" height="19">
        <path fill="#D9D9D9" d="M241.5 101.5h18v18h-18z"/>
    </mask>
    <g mask="url(#av8gtn8i4b)">
        <path d="M250.5 110.5a2.892 2.892 0 0 1-2.119-.881 2.892 2.892 0 0 1-.881-2.119c0-.825.294-1.531.881-2.119a2.892 2.892 0 0 1 2.119-.881c.825 0 1.531.294 2.119.881.587.588.881 1.294.881 2.119 0 .825-.294 1.531-.881 2.119a2.892 2.892 0 0 1-2.119.881zm-4.5 6c-.413 0-.766-.147-1.059-.441A1.441 1.441 0 0 1 244.5 115v-.6c0-.425.109-.816.328-1.172.219-.356.509-.628.872-.815a11.083 11.083 0 0 1 2.362-.872 10.317 10.317 0 0 1 4.876 0c.8.193 1.587.484 2.362.872.363.187.653.459.872.815.219.356.328.747.328 1.172v.6c0 .413-.147.766-.441 1.059a1.441 1.441 0 0 1-1.059.441h-9z" fill="#fff"/>
    </g>
    <rect x="236" y="136" width="29" height="29" rx="10" fill="#F2AB00"/>
    <mask id="jpzx6zgc8c" style="mask-type:alpha" maskUnits="userSpaceOnUse" x="241" y="141" width="19" height="19">
        <path fill="#D9D9D9" d="M241.5 141.5h18v18h-18z"/>
    </mask>
    <g mask="url(#jpzx6zgc8c)">
        <path d="M250.5 150.5a2.892 2.892 0 0 1-2.119-.881 2.892 2.892 0 0 1-.881-2.119c0-.825.294-1.531.881-2.119a2.892 2.892 0 0 1 2.119-.881c.825 0 1.531.294 2.119.881.587.588.881 1.294.881 2.119 0 .825-.294 1.531-.881 2.119a2.892 2.892 0 0 1-2.119.881zm-4.5 6c-.413 0-.766-.147-1.059-.441A1.441 1.441 0 0 1 244.5 155v-.6c0-.425.109-.816.328-1.172.219-.356.509-.628.872-.815a11.083 11.083 0 0 1 2.362-.872 10.317 10.317 0 0 1 4.876 0c.8.193 1.587.484 2.362.872.363.187.653.459.872.815.219.356.328.747.328 1.172v.6c0 .413-.147.766-.441 1.059a1.441 1.441 0 0 1-1.059.441h-9z" fill="#fff"/>
    </g>
    <rect x="197" y="174" width="29" height="29" rx="10" fill="#F2AB00"/>
    <mask id="lnuqeluv8d" style="mask-type:alpha" maskUnits="userSpaceOnUse" x="202" y="179" width="19" height="19">
        <path fill="#D9D9D9" d="M202.5 179.5h18v18h-18z"/>
    </mask>
    <g mask="url(#lnuqeluv8d)">
        <path d="M211.5 188.5a2.892 2.892 0 0 1-2.119-.881 2.892 2.892 0 0 1-.881-2.119c0-.825.294-1.531.881-2.119a2.892 2.892 0 0 1 2.119-.881c.825 0 1.531.294 2.119.881.587.588.881 1.294.881 2.119 0 .825-.294 1.531-.881 2.119a2.892 2.892 0 0 1-2.119.881zm-4.5 6c-.413 0-.766-.147-1.059-.441A1.441 1.441 0 0 1 205.5 193v-.6c0-.425.109-.816.328-1.172.219-.356.509-.628.872-.815a11.083 11.083 0 0 1 2.362-.872 10.317 10.317 0 0 1 4.876 0c.8.193 1.587.484 2.362.872.363.187.653.459.872.815.219.356.328.747.328 1.172v.6c0 .413-.147.766-.441 1.059a1.441 1.441 0 0 1-1.059.441h-9z" fill="#fff"/>
    </g>
    <rect x="236" y="174" width="29" height="29" rx="10" fill="#E54F00"/>
    <mask id="ubgndfey0e" style="mask-type:alpha" maskUnits="userSpaceOnUse" x="241" y="179" width="19" height="19">
        <path fill="#D9D9D9" d="M241.5 179.5h18v18h-18z"/>
    </mask>
    <g mask="url(#ubgndfey0e)">
        <path d="M250.5 188.5a2.892 2.892 0 0 1-2.119-.881 2.892 2.892 0 0 1-.881-2.119c0-.825.294-1.531.881-2.119a2.892 2.892 0 0 1 2.119-.881c.825 0 1.531.294 2.119.881.587.588.881 1.294.881 2.119 0 .825-.294 1.531-.881 2.119a2.892 2.892 0 0 1-2.119.881zm-4.5 6c-.413 0-.766-.147-1.059-.441A1.441 1.441 0 0 1 244.5 193v-.6c0-.425.109-.816.328-1.172.219-.356.509-.628.872-.815a11.083 11.083 0 0 1 2.362-.872 10.317 10.317 0 0 1 4.876 0c.8.193 1.587.484 2.362.872.363.187.653.459.872.815.219.356.328.747.328 1.172v.6c0 .413-.147.766-.441 1.059a1.441 1.441 0 0 1-1.059.441h-9z" fill="#fff"/>
    </g>
    <path d="M296.488 241H37.455c-.227 0-.455-.258-.455-.688 0-.43.17-.688.455-.688h259.033c.227 0 .455.258.455.688 0 .43-.228.688-.455.688z" fill="#202020"/>
    <mask id="9uv4bohz5f" style="mask-type:luminance" maskUnits="userSpaceOnUse" x="37" y="60" width="260" height="180">
        <path d="M297 60.353H37v179.271h260V60.354z" fill="#fff"/>
    </mask>
    <g mask="url(#9uv4bohz5f)">
        <path d="M107.169 85.715a19.513 19.513 0 0 0 6.543-1.806c2.158-.973 3.551-1.599 4.247-3.127 1.183-2.363.278-5.976-2.228-7.713-2.227-1.529-4.733-1.112-5.221-.973-.209-2.57-1.879-4.794-4.246-5.767-3.481-1.39-6.544.834-6.683.973-.418-.348-2.088-1.668-4.316-1.46-2.575.21-4.803 2.294-5.499 5.212-2.158-.278-4.316.556-5.5 2.224-1.183 1.737-.904 3.613-.835 4.1a6.843 6.843 0 0 0-2.645 3.126c-.835 2.015-.975 5.003.766 6.74.417.417.905.695 1.253.903-.488 1.32-.488 2.432-.488 3.127.14 3.127 2.02 5.628 5.221 9.658.348.487.697.904.905 1.112.627.139 1.184.278 1.81.417.348-1.112.836-2.78 1.114-4.933.418-3.405-.07-4.864.209-6.115.418-2.154 3.62-4.586 15.593-5.698z" fill="#202020"/>
        <path d="M209.001 134.5c-1.74 0 1.785-1.834-1-1-4.072 2.411-1 0-1 0s-14.767 3.842-20.127 9.332c-.487.486-.835 1.042-1.183 1.737-10.442.417-35.294 3.752-43.229 3.682-2.297-3.265-7.449-6.462-10.651-10.005-7.657-8.269-12.948-13.48-19.491-17.372l4.455 19.387c5.012 10.7 5.917 12.993 6.961 14.939 4.734 8.894 16.15 23.555 32.23 22.721 20.605-1.111 27.163-7.267 32.035-9.421.209.139 1.727 1.57 1.936 1.639 5.499 1.598 24.716-.929 25.064-3.639.209-1.876.832-16.442-1.187-27.004 2.297-1.737-2.148-2.954-1.313-3.996 1.253-1.807.538-1-3.5-1z" fill="#fff"/>
        <path d="M154.504 178.408c-18.099 0-29.167-19.109-31.255-23-.627-1.181-1.184-2.432-2.646-5.489-.974-2.085-2.366-5.072-4.385-9.45 0 0 0-.069-.07-.069l-4.455-19.387c-.07-.208 0-.417.209-.555a.424.424 0 0 1 .557 0c6.543 3.891 11.764 8.963 19.63 17.44 1.393 1.529 3.133 2.988 4.873 4.378 2.228 1.876 4.316 3.613 5.708 5.419 4.386 0 13.505-.972 22.415-1.876 7.588-.764 15.385-1.598 20.188-1.806a7.313 7.313 0 0 1 1.183-1.598c5.43-5.42 24.643-11.743 25.408-11.952.14-.069.279 0 .418.07 3.272-.973 5.639-1.459 7.101-1.459 1.531 0 2.436.347 2.784 1.111.557 1.182-.418 2.641-1.601 4.169-.835 1.043-3.829 3.475-6.335 5.351 2.437 12.368 5.221 27.307 5.012 29.183-.069.348-.278.695-.696.973-3.55 2.362-23.807 2.293-28.889.834-.209-.07-.348-.139-.557-.209-.557.209-1.113.487-1.81.834-5.012 2.363-13.365 6.254-31.464 7.227-.348-.139-.835-.139-1.323-.139zm-37.312-38.356c2.019 4.378 3.411 7.296 4.386 9.45 1.392 3.057 1.949 4.308 2.576 5.42 2.088 3.891 13.435 23.416 31.743 22.443 17.89-.972 26.174-4.864 31.046-7.157.766-.347 1.393-.694 2.019-.903a.599.599 0 0 1 .487 0c.209.139.418.209.557.278 5.082 1.459 24.295 1.32 27.845-.625.348-.139.348-.278.348-.278.139-1.32-1.671-11.952-5.012-29.114-.07-.209.07-.417.209-.487 3.55-2.64 5.778-4.586 6.404-5.35.418-.556 1.81-2.293 1.462-3.057-.139-.348-.835-.556-1.81-.556-1.392 0-3.898.556-7.17 1.528-.139.07-.278.001-.418-.069-2.714.903-19.839 6.74-24.642 11.604-.418.417-.766.973-1.114 1.598-.07.139-.278.278-.418.278-4.803.209-12.739 1.042-20.465 1.807-9.05.903-18.448 1.876-22.764 1.876-.139 0-.348-.07-.417-.209-1.253-1.806-3.411-3.543-5.639-5.42-1.74-1.459-3.55-2.918-4.942-4.516-7.379-7.991-12.391-12.855-18.308-16.607l4.037 18.066z" fill="#202020"/>
        <rect x="167.001" y="129" width="50.212" height="42.336" rx="14" fill="#27AC34"/>
        <mask id="qtbwvzho5g" style="mask-type:alpha" maskUnits="userSpaceOnUse" x="180" y="138" width="25" height="25">
            <path fill="#D9D9D9" d="M180.107 138.168h24v24h-24z"/>
        </mask>
        <g mask="url(#qtbwvzho5g)">
            <path d="M192.107 150.168c-1.1 0-2.042-.392-2.825-1.175-.783-.784-1.175-1.725-1.175-2.825s.392-2.042 1.175-2.825c.783-.784 1.725-1.175 2.825-1.175s2.042.391 2.825 1.175c.783.783 1.175 1.725 1.175 2.825s-.392 2.041-1.175 2.825c-.783.783-1.725 1.175-2.825 1.175zm-6 8c-.55 0-1.021-.196-1.413-.588a1.926 1.926 0 0 1-.587-1.412v-.8c0-.567.146-1.088.437-1.563a2.92 2.92 0 0 1 1.163-1.087 14.853 14.853 0 0 1 3.15-1.163 13.778 13.778 0 0 1 3.25-.387c1.1 0 2.183.129 3.25.387 1.067.259 2.117.646 3.15 1.163.483.25.871.612 1.162 1.087.292.475.438.996.438 1.563v.8c0 .55-.196 1.021-.588 1.412a1.923 1.923 0 0 1-1.412.588h-12z" fill="#fff"/>
        </g>
        <path d="M88.234 109.201c1.879.069 4.037.208 6.334.556 3.272.556 6.056 1.32 8.423 2.154.139 2.64.348 5.35.487 7.991l-16.01-2.988c.209-2.571.487-5.142.766-7.713z" fill="#FFAF30"/>
        <path d="M130.141 203.839c1.114 10.284 2.575 26.265 3.48 45.79.766 16.885.488 29.67.418 35.368-.348 20.428-.975 59.131-2.367 139.108a48.476 48.476 0 0 1-16.219 3.474 49.258 49.258 0 0 1-19.004-2.988c.487-23.138.905-57.186 0-95.263-.627-28.35-1.88-55.866-3.55-82.409-.627 22.235-1.323 44.47-1.95 66.705-1.113 36.827-2.158 73.654-3.271 110.481-5.221.973-11.765 1.668-19.213 1.529-6.753-.139-12.67-.973-17.473-2.016.627-25.083.836-45.442.975-59.061.348-35.854 1.392-71.708 1.392-107.632 0-4.794-.348-18.691 1.95-36.896l1.67-13.202 73.162-2.988z" fill="#202020"/>
        <path d="M56.909 206.966c25.756 6.531 41.767 5.489 51.721 3.196l21.719-5.281s-1.392-7.018-2.854-14.522c-2.088-10.701-3.132-16.051-3.481-17.858-2.854-15.912-1.74-20.428-5.22-36.757-1.323-6.392-2.437-9.936-5.361-13.341-2.088-2.432-4.594-4.03-6.961-5.211-2.854-1.32-5.638-2.015-7.587-2.293l-13.575 1.528-4.664.556-11.764 19.664-5.221 8.755c-2.297 20.498-4.525 40.996-6.752 61.564z" fill="#27AC34"/>
        <path d="M85.31 116.427c.418 4.795 5.013 8.616 10.651 8.616 5.291 0 9.746-3.404 10.512-7.851-2.855-1.32-5.639-2.015-7.588-2.293l-13.575 1.528z" fill="#202020"/>
        <path d="M88.303 93.775v24.528c0 2.224 2.228 4.17 5.221 4.517 1.114.139 2.367.139 3.69.069.208 0 .348 0 .487-.069 2.993-.347 5.151-2.224 5.151-4.447V93.845H88.303v-.07z" fill="#fff"/>
        <path d="M95.682 123.445c-.765 0-1.462-.069-2.227-.139-3.272-.347-5.708-2.501-5.708-5.003V93.775c0-.278.208-.555.556-.555h14.619c.278 0 .557.208.557.555v24.528c0 2.502-2.367 4.656-5.639 5.003-.209 0-.348.07-.557.07-.556 0-1.113.069-1.6.069zm-6.891-29.183v23.972c0 1.946 2.019 3.683 4.733 3.961 1.184.139 2.437.139 3.62.069.14 0 .348 0 .487-.069 2.646-.278 4.664-2.015 4.664-3.961V94.192H88.791v.07z" fill="#202020"/>
        <path d="M90.253 129.352c-.14-.07-.279-.209-.418-.278-.418-.348-.975-.765-1.462-1.251l-.14-.139c-1.183-1.181-2.366-2.918-2.714-5.281-.14-.625-.14-1.181-.14-1.737 0-.625.07-1.181.14-1.668.278-1.598.905-2.779 1.183-3.335-.487 0-.974.07-1.531.139-.14 0-.348 0-.487.07-2.297.277-5.152.833-8.215 2.015a31.147 31.147 0 0 0-5.916 2.987c-.14.07-.349.209-.488.278l-.07.07v.139c-9.258 4.933-10.72 9.172-26.73 99.502l5.29 2.918v.139l1.044.417c4.456 1.876 11.695 4.169 20.675 3.822h.487c1.044-.07 2.089-.139 3.133-.278a52.71 52.71 0 0 0 9.189-1.946c.765-8.963 1.531-17.857 2.297-26.821.07-.556.07-1.181.139-1.737.07-.417.07-.834.14-1.181.069-.417.069-.834.138-1.321l1.045-12.09c.07-.764.139-1.598.208-2.362.14-1.876.349-3.683.488-5.559.07-.486.07-.903.139-1.39.418-5.072.835-10.145 1.323-15.147.07-.556.07-1.182.139-1.738.07-.416.07-.903.139-1.32.348-4.447.766-8.894 1.114-13.341.07-.556.07-1.181.139-1.737.278-2.918.487-5.837.766-8.755V129.907c-.21-.069-.557-.278-1.044-.555zM113.712 82.519c-1.114 1.39-2.158 1.667-2.715 1.806-.557.07-1.044.07-2.924-.416-2.088-.556-2.506-.765-3.132-.904-2.785-.625-5.57.973-9.955 3.544-1.183.695-1.67 1.181-2.088 1.32-.488.209-.836.556-1.114.973-.627-.486-1.253-.764-1.88-.695-1.113.14-2.018 1.32-2.297 2.502-.348 1.528.487 2.848 1.253 3.89.418.557 1.114 1.53 2.367 2.363 0 .348.07.764.07 1.181.07 1.946.139 2.988.417 3.753 1.044 2.987 3.62 4.586 5.709 5.836 2.366 1.39 4.942 2.919 8.074 2.293 1.88-.347 3.133-1.32 3.759-1.876 3.481-2.779 4.038-7.087 4.247-8.824.209-1.807.069-2.85 0-4.725-.209-2.85-.279-6.949.209-12.021z" fill="#fff"/>
        <path d="M104.036 110.66c-2.645 0-4.873-1.32-6.892-2.571-2.158-1.32-4.803-2.918-5.917-6.114-.278-.904-.348-1.946-.417-3.891 0-.279 0-.626-.07-.904-.905-.695-1.67-1.459-2.297-2.362-.766-1.181-1.74-2.571-1.323-4.308.279-1.251 1.392-2.71 2.785-2.85.626-.069 1.253.14 1.81.487.278-.278.556-.486.974-.695.14-.07.348-.208.557-.347.348-.209.835-.556 1.462-.973 4.386-2.57 7.309-4.308 10.302-3.613.279.07.488.139.836.278.487.139 1.114.347 2.297.625 1.81.487 2.228.556 2.715.417.835-.139 1.671-.695 2.367-1.598a.453.453 0 0 1 .626-.139c.209.07.348.278.348.556-.348 4.03-.487 8.06-.278 11.882l.069.834c.07 1.459.14 2.501-.069 4.03-.279 1.876-.836 6.253-4.455 9.172-.557.486-1.95 1.598-3.968 1.945-.488.07-.975.139-1.462.139zM90.114 88.634h-.14c-.835.07-1.67 1.18-1.88 2.084-.347 1.32.419 2.432 1.184 3.474.557.834 1.323 1.599 2.228 2.224.139.07.209.208.209.417 0 .347.07.764.07 1.181.069 2.015.139 2.918.347 3.613.975 2.849 3.48 4.308 5.5 5.559 2.366 1.39 4.733 2.849 7.657 2.223 1.81-.347 2.924-1.32 3.55-1.737 3.272-2.64 3.829-6.74 4.038-8.546.208-1.46.139-2.432.069-3.822l-.069-.834c-.209-3.404-.14-6.948.139-10.63a4.528 4.528 0 0 1-1.949.902c-.696.14-1.253 0-3.133-.486-1.253-.347-1.879-.556-2.367-.695a5.607 5.607 0 0 1-.765-.208c-2.576-.556-5.221.973-9.537 3.474-.627.347-1.114.695-1.392.903-.279.209-.488.348-.697.417-.348.209-.626.417-.904.764a.383.383 0 0 1-.349.209c-.139 0-.278 0-.417-.139-.487-.139-.975-.347-1.392-.347z" fill="#202020"/>
        <path d="M101.948 101.21c0 .348-.07 1.043.278 1.737.139.278.557 1.321 1.531 1.737 1.532.695 3.272-.555 3.69-.903a5.916 5.916 0 0 0 1.601-1.806 7.82 7.82 0 0 1-2.506.416 7.617 7.617 0 0 1-4.594-1.181zM110.022 91.76c0 .556.418.973.975.973a.951.951 0 0 0 .975-.973.951.951 0 0 0-.975-.973.951.951 0 0 0-.975.973zM102.365 93.08a.974.974 0 0 0 .975-.972.974.974 0 0 0-1.949 0c0 .537.436.972.974.972zM94.012 84.812c.696 0 1.184.625.975 1.25-.279.974-.557 2.363-.14 3.614.418 1.32.697 2.64.906 3.474a.952.952 0 0 1-.697 1.181c-.487.14-1.044-.07-1.253-.625-.904-2.501-3.41-9.102-3.967-8.963-.418.208 2.366.139 4.176.069z" fill="#202020"/>
        <path d="M135.43 223.156c-2.228 1.042-5.151 2.223-8.562 3.057-.627.139-1.253.278-1.95.417l-1.044.208c-2.019.348-3.898.556-5.638.626-.766 0-1.462.069-2.158.069-2.158 0-4.038-.139-5.639-.347-.139-1.807-.278-3.613-.487-5.42-.07-.695-.139-1.39-.209-2.154 0-.347-.07-.764-.07-1.112-.069-.417-.069-.834-.139-1.25-.278-3.405-.557-6.879-.835-10.284-.07-.417-.07-.834-.139-1.251 0-.347-.07-.695-.07-1.042-.07-.556-.07-1.181-.139-1.737-.279-3.336-.557-6.601-.836-9.937-.069-.555-.069-1.181-.139-1.737-.069-.625-.139-1.25-.139-1.876-.07-.417-.07-.903-.139-1.32-.139-1.946-.348-3.891-.488-5.837-.069-.625-.069-1.181-.139-1.806-.209-2.432-.417-4.795-.626-7.227-.07-.417-.07-.833-.139-1.25-.07-1.182-.209-2.432-.279-3.614-.07-.625-.07-1.181-.139-1.806-.209-2.432-.418-4.795-.627-7.227-.069-.555-.069-1.181-.139-1.737-.139-1.25-.209-2.571-.348-3.821 0-.278-.07-.556-.07-.834 0-.139 0-.278-.069-.417-.07-.417-.07-.903-.139-1.32-.209-2.085-.348-4.169-.557-6.184-.07-.556-.07-1.182-.139-1.737-.14-1.251-.209-2.502-.349-3.683-.069-.417-.069-.834-.139-1.251-.069-.556-.069-1.181-.139-1.737s-.07-1.181-.139-1.737c-.07-.556-.07-1.112-.139-1.668 0-.208 0-.347-.07-.556v-.139c-.07-.833-.139-1.737-.209-2.571.905-.833 2.228-2.154 3.272-4.238.209-.347.348-.764.487-1.112.139-.417.279-.764.348-1.181l.209-1.042c.209-1.182.209-2.293.209-3.197v-.069c-.07-.556-.139-1.112-.139-1.459 0-.139-.07-.278-.07-.417.209.069.348.208.557.278 1.531.834 3.132 1.737 4.664 2.571.626.347 1.323.695 1.949 1.111.627.348 1.183.695 1.81.973.07.209.139.348.209.556.139.348.278.764.417 1.181.488 1.529 1.184 3.405 1.81 5.559 0 .07.07.139.07.209.278.833.487 1.667.766 2.432.626 2.154 1.253 4.169 1.81 6.184.139.417.208.764.348 1.181.069.208.139.417.139.625.139.626.348 1.181.487 1.807.279.973.487 1.876.696 2.849.279.973.488 2.015.696 2.988.766 3.404 1.462 6.67 2.089 9.797.139.625.278 1.32.348 1.945a471.885 471.885 0 0 1 1.879 11.187l.209 1.251c.07.209.07.417.139.626a2124.17 2124.17 0 0 0 2.298 14.313c.069.626.208 1.251.278 1.876.627 4.1 1.253 8.2 1.88 12.16.069.626.208 1.181.278 1.737.07.209.07.487.139.695.07.487.139.903.209 1.39.209 1.598.487 3.127.696 4.655.07.556.209 1.182.279 1.737.208 1.529.487 3.127.696 4.656.069.417.139.834.209 1.32.417 1.946.696 4.03 1.044 6.115z" fill="#D1E2DC"/>
        <path d="M135.43 223.156c-2.228 1.042-5.151 2.223-8.562 3.057-.627.139-1.253.278-1.95.417l-1.044.208c-2.019.348-3.898.556-5.638.626-.766 0-1.462.069-2.158.069-2.158 0-4.038-.139-5.639-.347-.139-1.807-.278-3.613-.487-5.42-.07-.695-.139-1.39-.209-2.154 0-.347-.07-.764-.07-1.112-.069-.417-.069-.834-.139-1.25-.278-3.405-.557-6.879-.835-10.284-.07-.417-.07-.834-.139-1.251 0-.347-.07-.695-.07-1.042-.07-.556-.07-1.181-.139-1.737-.279-3.336-.557-6.601-.836-9.937-.069-.555-.069-1.181-.139-1.737-.069-.625-.139-1.25-.139-1.876-.07-.417-.07-.903-.139-1.32-.139-1.946-.348-3.891-.488-5.837-.069-.625-.069-1.181-.139-1.806-.209-2.432-.417-4.795-.626-7.227-.07-.417-.07-.833-.139-1.25-.07-1.182-.209-2.432-.279-3.614-.07-.625-.07-1.181-.139-1.806-.209-2.432-.418-4.795-.627-7.227-.069-.555-.069-1.181-.139-1.737-.139-1.25-.209-2.571-.348-3.821 0-.278-.07-.556-.07-.834 0-.139 0-.278-.069-.417-.07-.417-.07-.903-.139-1.32-.209-2.085-.348-4.169-.557-6.184-.07-.556-.07-1.182-.139-1.737-.14-1.251-.209-2.502-.349-3.683-.069-.417-.069-.834-.139-1.251-.069-.556-.069-1.181-.139-1.737s-.07-1.181-.139-1.737c-.07-.556-.07-1.112-.139-1.668 0-.208 0-.347-.07-.556v-.139c-.07-.833-.139-1.737-.209-2.571.905-.833 2.228-2.154 3.272-4.238.209-.347.348-.764.487-1.112.139-.417.279-.764.348-1.181l.209-1.042c.209-1.182.209-2.293.209-3.197v-.069c-.07-.556-.139-1.112-.139-1.459 0-.139-.07-.278-.07-.417.209.069.348.208.557.278 1.531.834 3.132 1.737 4.664 2.571.626.347 1.323.695 1.949 1.111.627.348 1.183.695 1.81.973.07.209.139.348.209.556.139.348.278.764.417 1.181.488 1.529 1.184 3.405 1.81 5.559 0 .07.07.139.07.209.278.833.487 1.667.766 2.432.626 2.154 1.253 4.169 1.81 6.184.139.417.208.764.348 1.181.069.208.139.417.139.625.139.626.348 1.181.487 1.807.279.973.487 1.876.696 2.849.279.973.488 2.015.696 2.988.766 3.404 1.462 6.67 2.089 9.797.139.625.278 1.32.348 1.945a471.885 471.885 0 0 1 1.879 11.187l.209 1.251c.07.209.07.417.139.626a2124.17 2124.17 0 0 0 2.298 14.313c.069.626.208 1.251.278 1.876.627 4.1 1.253 8.2 1.88 12.16.069.626.208 1.181.278 1.737.07.209.07.487.139.695.07.487.139.903.209 1.39.209 1.598.487 3.127.696 4.655.07.556.209 1.182.279 1.737.208 1.529.487 3.127.696 4.656.069.417.139.834.209 1.32.417 1.946.696 4.03 1.044 6.115z" fill="#D1E2DC"/>
        <path d="M135.43 223.156c-2.228 1.042-5.151 2.223-8.562 3.057-.627.139-1.253.278-1.95.417l-1.044.208c-2.019.348-3.898.556-5.638.626-.766 0-1.462.069-2.158.069-2.158 0-4.038-.139-5.639-.347-.139-1.807-.278-3.613-.487-5.42-.07-.695-.139-1.39-.209-2.154 0-.347-.07-.764-.07-1.112-.069-.417-.069-.834-.139-1.25-.278-3.405-.557-6.879-.835-10.284-.07-.417-.07-.834-.139-1.251 0-.347-.07-.695-.07-1.042-.07-.556-.07-1.181-.139-1.737-.279-3.336-.557-6.601-.836-9.937-.069-.555-.069-1.181-.139-1.737-.069-.625-.139-1.25-.139-1.876-.07-.417-.07-.903-.139-1.32-.139-1.946-.348-3.891-.488-5.837-.069-.625-.069-1.181-.139-1.806-.209-2.432-.417-4.795-.626-7.227-.07-.417-.07-.833-.139-1.25-.07-1.182-.209-2.432-.279-3.614-.07-.625-.07-1.181-.139-1.806-.209-2.432-.418-4.795-.627-7.227-.069-.555-.069-1.181-.139-1.737-.139-1.25-.209-2.571-.348-3.821 0-.278-.07-.556-.07-.834 0-.139 0-.278-.069-.417-.07-.417-.07-.903-.139-1.32-.209-2.085-.348-4.169-.557-6.184-.07-.556-.07-1.182-.139-1.737-.14-1.251-.209-2.502-.349-3.683-.069-.417-.069-.834-.139-1.251-.069-.556-.069-1.181-.139-1.737s-.07-1.181-.139-1.737c-.07-.556-.07-1.112-.139-1.668 0-.208 0-.347-.07-.556v-.139c-.07-.833-.139-1.737-.209-2.571.905-.833 2.228-2.154 3.272-4.238.209-.347.348-.764.487-1.112.139-.417.279-.764.348-1.181l.209-1.042c.209-1.182.209-2.293.209-3.197v-.069c-.07-.556-.139-1.112-.139-1.459 0-.139-.07-.278-.07-.417.209.069.348.208.557.278 1.531.834 3.132 1.737 4.664 2.571.626.347 1.323.695 1.949 1.111.627.348 1.183.695 1.81.973.07.209.139.348.209.556.139.348.278.764.417 1.181.488 1.529 1.184 3.405 1.81 5.559 0 .07.07.139.07.209.278.833.487 1.667.766 2.432.626 2.154 1.253 4.169 1.81 6.184.139.417.208.764.348 1.181.069.208.139.417.139.625.139.626.348 1.181.487 1.807.279.973.487 1.876.696 2.849.279.973.488 2.015.696 2.988.766 3.404 1.462 6.67 2.089 9.797.139.625.278 1.32.348 1.945a471.885 471.885 0 0 1 1.879 11.187l.209 1.251c.07.209.07.417.139.626a2124.17 2124.17 0 0 0 2.298 14.313c.069.626.208 1.251.278 1.876.627 4.1 1.253 8.2 1.88 12.16.069.626.208 1.181.278 1.737.07.209.07.487.139.695.07.487.139.903.209 1.39.209 1.598.487 3.127.696 4.655.07.556.209 1.182.279 1.737.208 1.529.487 3.127.696 4.656.069.417.139.834.209 1.32.417 1.946.696 4.03 1.044 6.115z" fill="#fff"/>
        <path d="M91.365 130.672c-.07.069-.07.139-.139.208 0 0-.07 0-.07-.069-.139-.07-.417-.209-.765-.417-1.67-1.042-5.221-3.613-6.126-8.269-.557-2.71 0-5.072.418-6.323v-.069c0-.07 0-.07.07-.139l.417-.834c1.044-1.876 2.019-3.752 3.063-5.628-.14.903-.209 2.293.278 3.752 1.114 3.752 4.038 4.725 5.221 7.226.836 1.876 1.044 5.003-2.367 10.562z" fill="#D1E2DC"/>
        <path d="M91.365 130.672c-.07.069-.07.139-.139.208 0 0-.07 0-.07-.069-.139-.07-.417-.209-.765-.417-1.67-1.042-5.221-3.613-6.126-8.269-.557-2.71 0-5.072.418-6.323v-.069c0-.07 0-.07.07-.139l.417-.834c1.044-1.876 2.019-3.752 3.063-5.628-.14.903-.209 2.293.278 3.752 1.114 3.752 4.038 4.725 5.221 7.226.836 1.876 1.044 5.003-2.367 10.562z" fill="#D1E2DC"/>
        <path d="M91.365 130.672c-.07.069-.07.139-.139.208 0 0-.07 0-.07-.069-.139-.07-.417-.209-.765-.417-1.67-1.042-5.221-3.613-6.126-8.269-.557-2.71 0-5.072.418-6.323v-.069c0-.07 0-.07.07-.139l.417-.834c1.044-1.876 2.019-3.752 3.063-5.628-.14.903-.209 2.293.278 3.752 1.114 3.752 4.038 4.725 5.221 7.226.836 1.876 1.044 5.003-2.367 10.562z" fill="#F9F8F8"/>
        <path d="M86.702 145.611a1.53 1.53 0 0 0 1.532-1.529 1.53 1.53 0 0 0-3.063 0 1.53 1.53 0 0 0 1.531 1.529zM86.215 163.329c0 .834-.696 1.529-1.531 1.529a1.544 1.544 0 0 1-1.532-1.529c0-.833.696-1.528 1.532-1.528.835 0 1.531.695 1.531 1.528zM82.735 184.036a1.53 1.53 0 0 0 1.531-1.529 1.53 1.53 0 0 0-3.063 0 1.53 1.53 0 0 0 1.532 1.529zM82.248 201.685c0 .834-.697 1.529-1.532 1.529a1.544 1.544 0 0 1-1.531-1.529c0-.834.696-1.529 1.531-1.529.835.07 1.532.695 1.532 1.529z" fill="#202020"/>
        <path d="M107.099 124.071a16.526 16.526 0 0 1-1.88 4.864c-.974 1.667-2.088 2.848-2.784 3.474v-.07s0-.069-.07-.069c-3.62-6.184-3.411-9.311-2.436-11.118.487-.903 1.253-1.459 2.018-2.988 1.114-2.293 1.184-4.586.975-6.253 1.183 1.806 2.367 3.544 3.55 5.35v.07c.209.278.418.625.627.903 0 0 0 .069.069.069.279 1.39.418 3.405-.069 5.768z" fill="#D1E2DC"/>
        <path d="M107.099 124.071a16.526 16.526 0 0 1-1.88 4.864c-.974 1.667-2.088 2.848-2.784 3.474v-.07s0-.069-.07-.069c-3.62-6.184-3.411-9.311-2.436-11.118.487-.903 1.253-1.459 2.018-2.988 1.114-2.293 1.184-4.586.975-6.253 1.183 1.806 2.367 3.544 3.55 5.35v.07c.209.278.418.625.627.903 0 0 0 .069.069.069.279 1.39.418 3.405-.069 5.768z" fill="#D1E2DC"/>
        <path d="M107.099 124.071a16.526 16.526 0 0 1-1.88 4.864c-.974 1.667-2.088 2.848-2.784 3.474v-.07s0-.069-.07-.069c-3.62-6.184-3.411-9.311-2.436-11.118.487-.903 1.253-1.459 2.018-2.988 1.114-2.293 1.184-4.586.975-6.253 1.183 1.806 2.367 3.544 3.55 5.35v.07c.209.278.418.625.627.903 0 0 0 .069.069.069.279 1.39.418 3.405-.069 5.768z" fill="#F9F8F8"/>
        <path d="M204.209 172.571h-24.991a5.135 5.135 0 0 1-5.151-5.142v-24.945c0-.278.209-.556.557-.556.348 0 .557.209.557.556v24.945c0 2.293 1.879 4.1 4.107 4.1h24.99c1.95 0 3.551-1.32 4.038-3.127.07-.347.139-.625.139-.973 0-.278.209-.556.557-.556a.55.55 0 0 1 .557.556c0 .417-.07.834-.139 1.251-.766 2.293-2.854 3.891-5.221 3.891z" fill="#202020"/>
        <path d="M206.854 168.958c-.836-.417-2.158-1.042-2.297-2.224-.07-.764.348-1.598 1.183-2.362.418-.417 1.044-.764 1.671-1.042-.139 0-.488 0-.905-.139-.905-.209-2.228-.695-3.202-1.876-.348-.417-1.393-1.738-1.114-3.405.139-.695.487-1.39.974-1.876.14-.139.348-.278.488-.487.417-.347.905-.555 1.392-.764 0 0-.487-.069-1.114-.278-.974-.278-2.297-.834-3.132-1.737-.975-1.042-1.323-2.71-.975-4.169.278-1.32 1.114-2.363 2.297-3.057a5.364 5.364 0 0 1 1.741-.695c-.279-.139-.557-.278-.836-.348-.905-.417-1.392-.625-1.601-.833-1.323-1.39-.278-3.822-.209-3.961 1.184-2.779 7.101-3.752 14.48-2.779 1.601 0 3.062.764 3.759 2.084.835 1.459.626 3.405-.557 4.794-.07.139-.209.209-.279.348.139.069.418.278.766.625.766.765 1.81 2.085 2.088 4.03.209 1.807-.348 3.197-.765 4.03-.14.348-.348.556-.418.626.07.069.209.139.418.347.556.487 1.392 1.459 1.461 2.919.14 1.667-.765 3.265-2.227 4.169-.07.069-.139.069-.279.139.209.069.836.208 1.462.695.348.277.696.555.975 1.042.905 1.528.417 3.474-.418 4.586-.557.764-1.392 1.181-6.335 1.737-5.568.834-7.1.556-8.492-.139z" fill="#fff"/>
        <path d="M210.195 170.139c-1.74 0-2.645-.278-3.55-.695-.905-.417-2.367-1.181-2.576-2.64-.139-.973.418-1.946 1.392-2.78.14-.139.279-.278.488-.347-.905-.278-2.089-.834-2.994-1.946-.348-.486-1.531-1.876-1.183-3.821a4.028 4.028 0 0 1 1.114-2.154c.139-.209.348-.348.557-.487a.952.952 0 0 1 .278-.208c-1.044-.348-2.297-.903-3.132-1.807-1.045-1.181-1.532-2.988-1.114-4.586a5.478 5.478 0 0 1 2.575-3.404c.209-.139.418-.209.557-.278-.696-.348-1.113-.556-1.322-.765-1.462-1.528-.627-3.821-.348-4.516 1.253-2.988 6.961-4.169 15.036-3.127 1.81 0 3.411.903 4.177 2.362.905 1.668.696 3.753-.557 5.281.139.07.209.209.348.348.835.834 1.949 2.293 2.227 4.377a7.414 7.414 0 0 1-.835 4.308.527.527 0 0 0-.139.278l.069.07c.557.486 1.532 1.667 1.671 3.266.139 1.598-.557 3.196-1.879 4.238.208.07.417.209.626.347.487.348.835.695 1.114 1.182 1.044 1.667.557 3.891-.487 5.142-.697.903-1.532 1.32-6.683 1.945-2.506.278-4.177.417-5.43.417zm.279-33.005c-4.664 0-7.936 1.042-8.702 2.849-.209.556-.905 2.362.139 3.404.139.139 1.044.556 1.462.765.209.139.487.208.835.347.209.07.349.278.279.556 0 .209-.209.417-.418.487a6.346 6.346 0 0 0-1.601.625c-1.044.625-1.81 1.598-2.088 2.779-.279 1.32.069 2.78.905 3.683.765.834 2.019 1.32 2.923 1.598.349.07.697.209 1.045.278h.069c.209.07.348.278.348.486a.523.523 0 0 1-.348.487c-.487.139-.905.417-1.253.695l-.417.417c-.418.486-.766 1.042-.836 1.598-.278 1.459.627 2.571.975 2.988.835 1.042 2.019 1.528 2.854 1.667.418.07.696.139.835.139.209 0 .418.209.487.417.07.208-.069.486-.278.556-.626.278-1.114.556-1.531.903-.697.626-1.114 1.32-1.045 1.876.14.904 1.323 1.459 2.019 1.807 1.323.695 2.854.834 8.284.139 4.873-.625 5.499-.973 5.987-1.598.765-1.043 1.183-2.71.417-3.961-.209-.347-.487-.625-.835-.903-.487-.348-1.044-.556-1.323-.556a.627.627 0 0 1-.417-.417c0-.208.069-.417.278-.556.07-.069.139-.069.209-.139 1.323-.834 2.088-2.223 2.019-3.682-.07-1.321-.836-2.155-1.323-2.571-.139-.139-.278-.278-.348-.278-.209-.139-.278-.487-.139-.765.069-.069.209-.278.348-.625.417-.834.905-2.085.696-3.683-.209-1.737-1.183-2.988-1.88-3.752a7.741 7.741 0 0 1-.696-.625c-.139-.07-.209-.209-.209-.417 0-.139.07-.278.14-.417l.278-.278c1.044-1.181 1.253-2.849.487-4.169-.626-1.181-1.879-1.876-3.341-1.807h-.07c-1.879-.208-3.619-.347-5.22-.347zM116.078 228.02c-1.879 0-3.828-.139-5.708-.348-.278 0-.417-.208-.487-.486l-.766-8.825c0-.347-.069-.764-.069-1.112l-.836-10.283c-.069-.417-.069-.834-.139-1.251l-1.531-17.718c-.14-1.946-.348-3.892-.488-5.837-.069-.626-.069-1.181-.139-1.807l-1.044-12.16c-.07-.625-.07-1.181-.139-1.806l-.627-7.227c-.069-.555-.069-1.181-.139-1.737l-1.531-18.066c0-.278.208-.556.487-.556.278 0 .557.209.557.487l1.531 18.066c.07.556.07 1.181.139 1.737l.627 7.226c.07.626.07 1.182.139 1.807l1.044 12.16c.07.625.07 1.181.14 1.806.139 1.946.348 3.891.487 5.837l2.436 29.184c0 .347.07.764.07 1.111l.696 8.408c1.74.208 3.481.278 5.151.278.696 0 1.462 0 2.158-.07a36.902 36.902 0 0 0 5.569-.625l1.044-.208 1.88-.417a46.43 46.43 0 0 0 8.075-2.849l-1.253-8.199c-.209-1.182-.348-2.363-.557-3.614l-1.601-10.283c-.627-4.03-1.253-8.06-1.88-12.16l-.278-1.876c-.766-4.656-1.532-9.45-2.297-14.314l-.279-1.876a759.526 759.526 0 0 0-1.879-11.187c-.07-.556-.209-1.112-.348-1.668l-.07-.278a186.54 186.54 0 0 0-2.088-9.797c-.209-.973-.488-1.946-.696-2.988-.209-.903-.488-1.876-.697-2.849-.139-.625-.348-1.181-.487-1.806-.069-.209-.139-.417-.139-.626l-.348-1.181c-.07-.278.07-.556.348-.625.278-.07.557.069.626.347l.349 1.181c.069.209.139.417.139.626.139.625.348 1.181.487 1.806.278.973.487 1.876.696 2.849.279.973.487 2.015.696 2.988.766 3.196 1.393 6.393 2.089 9.797l.069.278c.139.556.209 1.112.348 1.737.766 3.961 1.323 7.713 1.949 11.187l.279 1.877c.766 4.863 1.531 9.658 2.297 14.313l.279 1.876c.626 4.1 1.253 8.2 1.879 12.16l1.601 10.284c.209 1.181.348 2.362.557 3.613l1.253 8.547c0 .208-.07.417-.278.556a49.414 49.414 0 0 1-8.632 3.126c-.627.139-1.323.278-1.949.417l-1.045.209a39.807 39.807 0 0 1-5.708.625c-.557.209-1.322.209-2.019.209z" fill="#202020"/>
        <path d="M143.854 152.351s11.278-12.716 15.385-11.257c4.107 1.46-3.133 9.172-3.759 12.369-.557 3.265-11.626-1.112-11.626-1.112z" fill="#fff"/>
        <path d="M153.113 155.2c-3.411 0-8.771-2.085-9.468-2.363a.837.837 0 0 1-.348-.347c-.069-.139 0-.348.14-.487 1.183-1.32 11.625-12.924 15.941-11.395.765.278 1.253.764 1.461 1.39.627 1.806-1.044 4.586-2.714 7.296-1.045 1.667-2.019 3.265-2.158 4.308-.07.556-.418.972-.905 1.25-.418.209-1.114.348-1.949.348zm-8.354-3.058c2.715.973 8.145 2.71 9.815 1.738.209-.139.348-.278.348-.487.209-1.181 1.254-2.849 2.298-4.655 1.392-2.293 3.063-5.073 2.575-6.393-.139-.347-.417-.556-.835-.764-2.854-1.042-10.79 6.809-14.201 10.561z" fill="#202020"/>
        <path d="M186.457 159.855c-.348 1.182-1.114 2.085-1.95 2.78-1.322.972-2.714 1.389-2.854 1.459.07 0 .488.069.975.208.696.209 1.601.695 2.019 1.598.348.834.209 1.599.209 1.807-.488 2.362-3.69 3.752-4.804 4.169-16.846 6.949-28.123 8.199-28.123 8.199-1.949.209-4.385.487-7.309.626-.209 0-.487 0-.766.069-.278-.069-.557-.069-.835-.139-.418-.069-.836-.139-1.323-.208-.348-.07-.626-.139-.974-.139-.836-.139-1.741-.348-2.715-.487-4.664-17.371.139-23.208 1.879-24.875.488-.487 1.462-1.112 3.063-1.946.418-.278.905-.486 1.462-.764.279-.139.627-.347.905-.486 1.949-1.043 4.525-2.363 7.657-3.961 4.107-2.085 6.265-3.196 8.911-4.378 0 0 14.827-6.601 17.82-4.03.209.209 1.114.973 1.114 2.015 0 .626-.139 2.71-11.138 8.269-2.019 1.042-3.759 1.807-5.012 2.363a49.35 49.35 0 0 0 4.734-1.738c6.961-2.779 10.093-5.28 13.435-4.169.487.139 1.601.556 2.297 1.598.975 1.46.487 3.266.418 3.683-.14.556-.348.973-.557 1.39-.279.417-.488.764-.696.903.069.07.208.139.348.278.557.556 1.531 1.598 1.879 3.196 0 .278.279 1.46-.069 2.71z" fill="#fff"/>
        <path d="M143.855 181.326H143.646c-.209 0-.487-.069-.696-.139-.418-.069-.836-.139-1.323-.208l-.209-.07c-.278-.069-.487-.069-.766-.139-.835-.139-1.74-.347-2.714-.486a.716.716 0 0 1-.418-.348c-4.386-16.12-.627-22.791 2.019-25.362.487-.486 1.462-1.111 3.132-2.084.418-.209.905-.486 1.462-.764h.07l.905-.487h.069c1.949-1.042 4.455-2.293 7.588-3.891l.139-.069c4.177-2.154 6.265-3.197 8.91-4.378 1.532-.695 15.245-6.67 18.378-3.961 1.044.904 1.323 1.807 1.323 2.432 0 .556.139 2.085-5.709 5.629 2.924-1.321 5.082-2.085 7.379-1.321.418.139 1.81.556 2.576 1.807.696 1.112.905 2.501.487 4.1a5.9 5.9 0 0 1-.626 1.528l-.418.626c.696.625 1.601 1.806 2.019 3.404a7.38 7.38 0 0 1 0 3.058c-.348 1.181-1.044 2.154-2.089 3.057-.556.417-1.044.695-1.531.973a3.486 3.486 0 0 1 1.81 1.667c.209.417.418 1.182.209 2.154-.557 2.71-3.968 4.1-5.152 4.586-16.706 6.879-28.192 8.2-28.332 8.2-2.366.278-4.803.486-7.309.625-.417-.208-.696-.139-.974-.139zm-5.43-2.015c.835.139 1.601.347 2.367.417.278.069.487.069.765.139l.209.069c.418.07.905.139 1.323.209.209.069.487.069.696.139h.07c.208 0 .417 0 .696-.07 2.436-.139 4.873-.347 7.239-.625.14 0 11.486-1.32 27.984-8.13 2.715-1.112 4.247-2.432 4.525-3.821.139-.556.07-1.043-.139-1.529-.348-.764-1.114-1.181-1.671-1.32-.417-.139-.766-.209-.835-.209-.279 0-.418-.208-.487-.486 0-.278.139-.487.417-.556 0 0 1.462-.347 2.645-1.32.905-.695 1.462-1.529 1.741-2.502a4.944 4.944 0 0 0 0-2.501 5.803 5.803 0 0 0-1.741-2.918l-.278-.278a.384.384 0 0 1-.209-.348c0-.139.07-.278.139-.417.279-.278.488-.556.627-.834.209-.347.418-.764.557-1.25.348-1.251.209-2.432-.348-3.266-.627-.973-1.671-1.251-2.019-1.39-2.228-.695-4.386.278-8.005 1.946a77.43 77.43 0 0 1-5.082 2.223c-1.601.626-3.202 1.251-4.803 1.737-.279.07-.557-.069-.627-.278-.069-.277 0-.555.279-.694 1.67-.765 3.341-1.529 4.942-2.363 10.233-5.142 10.929-7.226 10.86-7.782 0-.417-.209-1.042-.975-1.668-1.949-1.737-11.625 1.598-17.264 4.1-2.575 1.181-4.733 2.223-8.84 4.377l-.14.07c-3.132 1.598-5.569 2.849-7.518 3.891h-.069l-.836.486h-.069c-.557.278-1.044.556-1.462.765-1.601.903-2.506 1.459-2.924 1.876-2.367 2.501-5.778 8.755-1.74 24.111z" fill="#202020"/>
        <path d="M147.821 183.758c-.696 1.459-2.088 2.432-3.689 2.71-9.05 1.528-43.995 5.697-61.259-14.036-4.385-5.003-7.17-11.048-12.6-22.791a2.092 2.092 0 0 0-.278-.556c-7.1-15.287-7.17-20.984-4.803-24.389 1.392-2.015 3.62-2.988 4.942-3.544 1.114-.486 4.316-1.876 7.797-.973 2.784.765 4.455 2.71 5.36 3.753 6.683 7.782 17.473 22.93 17.96 23.624 3.272 4.1 5.778 7.366 6.613 8.408.07.139.209.209.209.278.348-.069.626-.139.974-.208 10.79-2.502 21.58-5.003 32.3-7.505 2.715-.625 5.43 1.112 5.987 3.822 1.74 8.06 4.316 23.694.487 31.407z" fill="#D1E2DC"/>
        <path d="M147.821 183.758c-.696 1.459-2.088 2.432-3.689 2.71-9.05 1.528-43.995 5.697-61.259-14.036-4.385-5.003-7.17-11.048-12.6-22.791a2.092 2.092 0 0 0-.278-.556c-7.1-15.287-7.17-20.984-4.803-24.389 1.392-2.015 3.62-2.988 4.942-3.544 1.114-.486 4.316-1.876 7.797-.973 2.784.765 4.455 2.71 5.36 3.753 6.683 7.782 17.473 22.93 17.96 23.624 3.272 4.1 5.778 7.366 6.613 8.408.07.139.209.209.209.278.348-.069.626-.139.974-.208 10.79-2.502 21.58-5.003 32.3-7.505 2.715-.625 5.43 1.112 5.987 3.822 1.74 8.06 4.316 23.694.487 31.407z" fill="#D1E2DC"/>
        <path d="M147.821 183.758c-.696 1.459-2.088 2.432-3.689 2.71-9.05 1.528-43.995 5.697-61.259-14.036-4.385-5.003-7.17-11.048-12.6-22.791a2.092 2.092 0 0 0-.278-.556c-7.1-15.287-7.17-20.984-4.803-24.389 1.392-2.015 3.62-2.988 4.942-3.544 1.114-.486 4.316-1.876 7.797-.973 2.784.765 4.455 2.71 5.36 3.753 6.683 7.782 17.473 22.93 17.96 23.624 3.272 4.1 5.778 7.366 6.613 8.408.07.139.209.209.209.278.348-.069.626-.139.974-.208 10.79-2.502 21.58-5.003 32.3-7.505 2.715-.625 5.43 1.112 5.987 3.822 1.74 8.06 4.316 23.694.487 31.407z" fill="#fff"/>
        <path d="M126.243 188.483c-14.271 0-32.51-2.919-43.717-15.704-4.455-5.142-7.379-11.395-12.739-22.86l-.696-1.459c-.139-.278 0-.556.279-.695.278-.139.557 0 .696.278l.696 1.459c5.29 11.395 8.144 17.649 12.53 22.652 16.985 19.386 50.817 15.495 60.771 13.897a4.362 4.362 0 0 0 3.272-2.432c1.531-3.127 2.158-7.991 1.879-14.314 0-.278.209-.556.488-.556.278 0 .557.209.557.487.348 6.531-.348 11.534-1.95 14.869-.765 1.598-2.297 2.71-4.037 2.988-3.55.487-10.233 1.39-18.029 1.39zM148.309 157.632c-.278 0-.487-.209-.487-.417-.278-1.529-.557-3.127-.905-4.656-.278-1.181-.974-2.154-1.949-2.849-1.044-.625-2.228-.833-3.411-.556l-33.274 7.713c-.209.07-.418 0-.557-.208l-.209-.278c-1.114-1.529-3.55-4.586-6.544-8.408 0 0 0-.069-.069-.069-.487-.626-11.277-15.843-17.96-23.625-.766-.903-2.437-2.849-5.082-3.613-3.271-.903-6.265.417-7.448.903-.279.139-.557 0-.696-.278-.14-.278 0-.556.278-.695 1.114-.486 4.525-1.945 8.145-.972 2.993.833 4.733 2.918 5.638 3.891 6.613 7.713 17.264 22.582 17.96 23.624 3.063 3.822 5.499 6.949 6.613 8.478l32.927-7.644c1.461-.347 2.923-.069 4.176.695 1.253.764 2.089 2.015 2.437 3.474.348 1.529.626 3.127.905 4.656.069.278-.14.556-.418.625 0 .209 0 .209-.07.209z" fill="#202020"/>
        <path d="M103.897 168.61h-.07c-.278-.069-.487-.347-.418-.625.07-.348 1.462-8.547 4.386-11.952.209-.208.487-.277.766-.069.209.208.278.486.069.764-2.714 3.197-4.176 11.326-4.176 11.465-.14.209-.348.417-.557.417zM99.024 89.12c-.209 0-.348-.07-.487-.278-.14-.278-.07-.556.209-.695.07-.07 2.297-1.25 5.986-.834.279 0 .488.278.488.556s-.279.487-.557.487c-3.342-.348-5.29.695-5.29.695-.14.07-.28.07-.349.07zM113.364 89.12c-.07 0-.139 0-.209-.07 0 0-2.297-1.042-4.246-.486-.279.07-.557-.07-.627-.347-.069-.278.07-.556.348-.626 2.298-.694 4.873.487 5.013.556.278.14.348.417.278.695-.209.209-.418.278-.557.278zM107.029 100.168c-.278 0-.557-.07-.696-.139-.278-.139-.348-.417-.209-.695.14-.278.418-.347.696-.208.209.07 1.532-.07 2.228-.626.348-.278.418-.555.348-.764-.07-.556-.348-1.042-.696-1.598-.557-.903-1.183-2.015-1.253-3.822 0-.278.209-.556.487-.556.279 0 .487.209.487.487 0 1.528.557 2.432 1.045 3.266.348.625.765 1.25.835 2.015.07.694-.209 1.32-.905 1.806-.487.487-1.601.834-2.367.834zM90.81 95.026c-.14 0-.21-.07-.349-.139-1.81-1.39-1.88-3.266-1.113-4.447.556-.764 1.392-.973 2.018-.556.279.14.348.487.14.695-.14.278-.488.348-.697.14-.278-.21-.556.208-.626.277-.418.625-.557 1.946.835 2.988.21.208.279.486.07.764.07.209-.07.278-.278.278z" fill="#202020"/>
        <path d="M83.988 92.316c-.278 0-.487-.208-.487-.417-.348-2.084.557-3.752 1.114-4.516-.766-.556-2.088-1.946-2.228-4.447-.139-2.502 1.601-4.1 2.854-4.795-.348-1.042-.905-3.752 1.044-5.003.21-.139.557-.069.697.14.139.208.07.555-.14.694-1.74 1.112-.487 4.239-.487 4.239.14.278 0 .556-.278.695-.14.07-2.854 1.181-2.646 3.96.14 2.78 2.089 3.822 2.228 3.891.14.07.278.209.278.348 0 .139 0 .347-.139.417 0 0-1.6 1.806-1.183 4.1.07.277-.14.555-.418.625-.14.07-.209.07-.209.07z" fill="#fff"/>
        <path d="M68.325 228.714c-6.474 0-12.879-1.32-19.004-3.891-.348-.139-.697-.278-1.044-.486a.545.545 0 0 1-.279-.278l-5.012-2.779c-.209-.139-.278-.348-.278-.556 3.898-22.166 6.404-35.646 8.422-46.624.07-.278.349-.487.627-.417.279.069.487.347.418.625-2.019 10.84-4.455 24.25-8.354 46.207l4.943 2.78.209.208c.208.139.487.209.765.348 6.613 2.779 13.505 4.03 20.466 3.752h.488c1.044-.07 2.088-.139 3.062-.278a47.504 47.504 0 0 0 8.702-1.876l2.297-26.474c.07-.556.07-1.181.14-1.737l.138-1.181c0-.278.279-.487.557-.487.279 0 .488.278.488.556l-.14 1.181c-.07.556-.07 1.182-.139 1.738-.766 8.963-1.531 17.857-2.297 26.821 0 .208-.14.416-.348.486-2.993.973-6.126 1.598-9.258 2.015-.975.139-2.089.208-3.133.278h-.487c-.627 0-1.323.069-1.95.069zM90.323 130.95c-.07 0-.209 0-.279-.07-1.949-1.181-5.43-3.891-6.404-8.616a12.593 12.593 0 0 1 .487-6.601l.07-.139.07-.139.417-.834 3.063-5.628c.14-.208.348-.347.627-.278.209.07.417.348.348.556-.14 1.251-.07 2.432.209 3.544.348 1.111.835 2.084 1.67 3.057.21.208.14.556-.07.764-.208.209-.556.139-.765-.069-.905-1.112-1.532-2.154-1.95-3.474-.138-.556-.278-1.112-.347-1.737l-2.019 3.752c-.14.278-.279.556-.418.764l-.07.139a10.975 10.975 0 0 0-.417 5.976c.905 4.308 4.107 6.809 5.917 7.921.278.139.348.486.209.695 0 .347-.14.417-.348.417zM102.923 132.478a.531.531 0 0 1-.349-.139.546.546 0 0 1 0-.764c.836-.903 1.602-1.876 2.228-2.918.905-1.459 1.462-3.058 1.81-4.656.348-1.806.418-3.613.07-5.489l-3.133-4.725c-.07 1.668-.418 3.266-1.114 4.655-.139.278-.417.348-.696.278-.278-.139-.348-.416-.278-.694.835-1.738 1.183-3.753.974-5.976 0-.209.139-.486.348-.556a.564.564 0 0 1 .627.208l4.176 6.324.07.069c0 .07.07.139.07.209.348 2.015.348 4.03-.07 5.975-.348 1.737-1.044 3.474-1.949 5.003-.696 1.112-1.462 2.154-2.367 3.057-.139.07-.278.139-.417.139zM166.06 162.079a.523.523 0 0 1-.487-.348c-.07-.278.07-.556.348-.625.139-.07 12.321-3.891 18.099-7.852.209-.139.557-.069.696.139.139.209.07.556-.139.695-5.847 4.03-17.821 7.782-18.378 7.991-.069-.07-.069 0-.139 0zM165.712 169.93a.523.523 0 0 1-.487-.347c-.07-.278.069-.556.348-.625.069 0 9.954-2.78 15.871-5.351.279-.139.557 0 .696.278.14.278 0 .556-.278.695-6.056 2.571-15.941 5.35-16.011 5.42-.069-.07-.069-.07-.139-.07zM203.929 145.472a.476.476 0 0 1-.488-.486c0-.278.209-.556.488-.556l14.757-.765c.279 0 .557.209.557.487s-.209.556-.487.556l-14.827.764zM205.182 155.408a.475.475 0 0 1-.488-.486c0-.278.209-.556.488-.556l15.175-1.32c.278 0 .557.208.557.486s-.209.556-.487.556l-15.245 1.32zM207.409 163.885c-.278 0-.487-.208-.487-.417-.069-.278.139-.556.418-.625l12.321-2.224c.279-.069.557.139.627.417.069.278-.14.556-.418.626l-12.321 2.223h-.14z" fill="#202020"/>
    </g>
</svg>
